<svg width="49" height="48" viewBox="0 0 49 48" fill="none" xmlns="http://www.w3.org/2000/svg">
<path d="M24.5002 0C11.247 0 0.5 11.0169 0.5 24.6076C0.5 35.4799 7.37679 44.7039 16.9128 47.9577C18.1123 48.1855 18.5526 47.4239 18.5526 46.7739C18.5526 46.1872 18.5304 44.2487 18.52 42.1925C11.8431 43.6811 10.4342 39.2891 10.4342 39.2891C9.34249 36.4448 7.76945 35.6885 7.76945 35.6885C5.59192 34.1613 7.93359 34.1926 7.93359 34.1926C10.3436 34.3662 11.6126 36.7285 11.6126 36.7285C13.7532 40.4904 17.2272 39.4028 18.5967 38.7741C18.8121 37.1836 19.4341 36.0981 20.1205 35.4836C14.7897 34.8613 9.1859 32.7513 9.1859 23.3224C9.1859 20.6358 10.1234 18.4406 11.6587 16.7174C11.4095 16.0976 10.588 13.5947 11.8912 10.2052C11.8912 10.2052 13.9066 9.54387 18.493 12.7276C20.4074 12.1824 22.4606 11.9089 24.5002 11.8996C26.5398 11.9089 28.5946 12.1824 30.5126 12.7276C35.0934 9.54387 37.106 10.2052 37.106 10.2052C38.4123 13.5947 37.5905 16.0976 37.3413 16.7174C38.8801 18.4406 39.8113 20.6358 39.8113 23.3224C39.8113 32.7738 34.1968 34.8548 28.8525 35.464C29.7133 36.2276 30.4804 37.7252 30.4804 40.021C30.4804 43.3135 30.4526 45.9634 30.4526 46.7739C30.4526 47.4288 30.8846 48.1961 32.1011 47.9544C41.632 44.697 48.5 35.4762 48.5 24.6076C48.5 11.0169 37.7546 0 24.5002 0Z" fill="#161514"/>
<path d="M9.66085 35.1623C9.60809 35.2833 9.42085 35.3196 9.25027 35.2365C9.07652 35.157 8.97893 34.992 9.03526 34.8706C9.08683 34.7459 9.27447 34.7112 9.44782 34.7947C9.62197 34.8742 9.72115 35.0408 9.66085 35.1623Z" fill="#161514"/>
<path d="M10.6312 36.263C10.5169 36.3707 10.2936 36.3207 10.142 36.1504C9.98535 35.9806 9.956 35.7534 10.0718 35.6441C10.1896 35.5363 10.4062 35.5868 10.5633 35.7566C10.72 35.9285 10.7506 36.1541 10.6312 36.263Z" fill="#161514"/>
<path d="M11.5757 37.6663C11.4289 37.77 11.1889 37.6728 11.0405 37.4561C10.8938 37.2394 10.8938 36.9796 11.0437 36.8755C11.1925 36.7714 11.4289 36.865 11.5792 37.0801C11.7256 37.3004 11.7256 37.5602 11.5757 37.6663Z" fill="#161514"/>
<path d="M12.8697 39.0219C12.7384 39.1692 12.4587 39.1297 12.254 38.9287C12.0446 38.7322 11.9863 38.4534 12.118 38.3062C12.2509 38.1585 12.5321 38.2001 12.7384 38.3994C12.9463 38.5955 13.0097 38.8763 12.8697 39.0219Z" fill="#161514"/>
<path d="M14.6548 39.8091C14.5969 40 14.3276 40.0867 14.0562 40.0056C13.7853 39.9221 13.608 39.6986 13.6627 39.5057C13.719 39.3137 13.9896 39.2233 14.2629 39.31C14.5334 39.3932 14.7112 39.6151 14.6548 39.8091Z" fill="#161514"/>
<path d="M16.6153 39.9552C16.622 40.1561 16.392 40.3228 16.1071 40.3264C15.8207 40.3329 15.589 40.1703 15.5859 39.9726C15.5859 39.7696 15.8108 39.6046 16.0972 39.5998C16.382 39.5941 16.6153 39.7555 16.6153 39.9552Z" fill="#161514"/>
<path d="M18.4397 39.6392C18.4738 39.8353 18.2759 40.0366 17.993 40.0903C17.7149 40.1419 17.4575 40.0209 17.4222 39.8264C17.3877 39.6255 17.5892 39.4241 17.8669 39.3721C18.1501 39.3221 18.4036 39.4399 18.4397 39.6392Z" fill="#161514"/>
</svg>
