<svg width="84" height="83" viewBox="0 0 84 83" fill="none" xmlns="http://www.w3.org/2000/svg">
<g filter="url(#filter0_d_251_595)">
<path d="M23.6175 2.02539C20.029 2.02539 17.3745 5.16739 17.493 8.57489C17.607 11.8479 17.459 16.0879 16.3915 19.5449C15.3215 23.0129 13.5115 25.2044 10.555 25.4864V28.6799C13.5115 28.9614 15.3215 31.1534 16.3915 34.6214C17.459 38.0784 17.6065 42.3184 17.493 45.5914C17.374 48.9989 20.029 52.1404 23.6175 52.1404H60.3875C63.976 52.1404 66.6305 48.9984 66.512 45.5914C66.398 42.3184 66.546 38.0784 67.613 34.6214C68.683 31.1539 70.4885 28.9619 73.445 28.6799V25.4864C70.4885 25.2049 68.6835 23.0129 67.613 19.5449C66.546 16.0879 66.398 11.8479 66.512 8.57489C66.6305 5.16739 63.976 2.02539 60.387 2.02539H23.6175ZM52.6745 32.8684C52.6745 37.5604 49.1735 40.4049 43.364 40.4049H32.653C32.5879 40.4049 32.5254 40.379 32.4794 40.333C32.4334 40.2869 32.4075 40.2245 32.4075 40.1594V13.9964C32.4074 13.9641 32.4137 13.9321 32.426 13.9023C32.4383 13.8724 32.4564 13.8453 32.4792 13.8225C32.502 13.7996 32.5291 13.7815 32.5589 13.7691C32.5887 13.7568 32.6207 13.7504 32.653 13.7504H43.3075C48.152 13.7504 51.331 16.3734 51.331 20.4004C51.331 23.2269 49.1925 25.7569 46.4675 26.2004V26.3484C50.1765 26.7549 52.6745 29.3224 52.6745 32.8684ZM42.2855 17.1309H36.6465V25.0919H41.3965C45.0675 25.0919 47.092 23.6144 47.092 20.9729C47.092 18.4979 45.3515 17.1309 42.2855 17.1309ZM36.6465 28.2509V37.0249H42.494C46.3165 37.0249 48.3415 35.4919 48.3415 32.6099C48.3415 29.7284 46.26 28.2509 42.248 28.2509H36.6465Z" fill="#7952B3"/>
<path d="M15.699 61.7152V52.8462H18.2225C18.9891 52.8462 19.5973 53.0339 20.047 53.4092C20.4963 53.7842 20.721 54.2727 20.721 54.8747C20.721 55.378 20.585 55.8152 20.313 56.1862C20.0406 56.5572 19.6653 56.821 19.187 56.9777V57.0027C19.785 57.0727 20.2633 57.2994 20.622 57.6827C20.9806 58.062 21.16 58.5569 21.16 59.1672C21.16 59.9259 20.888 60.5402 20.344 61.0102C19.7996 61.4802 19.113 61.7152 18.284 61.7152H15.699ZM16.738 53.7862V56.6497H17.802C18.371 56.6497 18.8183 56.5137 19.144 56.2417C19.4696 55.965 19.6325 55.5774 19.6325 55.0787C19.6325 54.217 19.0655 53.7862 17.9315 53.7862H16.738ZM16.738 57.5837V60.7752H18.148C18.7583 60.7752 19.2305 60.6309 19.5645 60.3422C19.9025 60.0535 20.0715 59.6577 20.0715 59.1547C20.0715 58.1074 19.3581 57.5837 17.9315 57.5837H16.738ZM25.471 61.8652C24.535 61.8652 23.7866 61.5704 23.226 60.9807C22.6693 60.387 22.391 59.6015 22.391 58.6242C22.391 57.5605 22.6816 56.7297 23.263 56.1317C23.8443 55.534 24.6298 55.2352 25.6195 55.2352C26.5635 55.2352 27.2995 55.5259 27.8275 56.1072C28.3591 56.6885 28.625 57.4945 28.625 58.5252C28.625 59.5355 28.3385 60.3459 27.7655 60.9562C27.1965 61.5622 26.4316 61.8652 25.471 61.8652V61.8652ZM25.545 56.0887C24.8936 56.0887 24.3783 56.3114 23.999 56.7567C23.6196 57.1977 23.43 57.8079 23.43 58.5872C23.43 59.3379 23.6216 59.9295 24.005 60.3622C24.3883 60.7955 24.9016 61.0122 25.545 61.0122C26.2006 61.0122 26.7038 60.7997 27.0545 60.3747C27.4088 59.95 27.586 59.346 27.586 58.5627C27.586 57.771 27.4088 57.1607 27.0545 56.7317C26.7038 56.303 26.2006 56.0887 25.545 56.0887V56.0887ZM32.893 61.8652C31.957 61.8652 31.2086 61.5704 30.648 60.9807C30.0913 60.387 29.813 59.6015 29.813 58.6242C29.813 57.5605 30.1036 56.7297 30.685 56.1317C31.2663 55.534 32.0518 55.2352 33.0415 55.2352C33.9855 55.2352 34.7215 55.5259 35.2495 56.1072C35.7815 56.6885 36.0475 57.4945 36.0475 58.5252C36.0475 59.5355 35.7608 60.3459 35.1875 60.9562C34.6185 61.5622 33.8536 61.8652 32.893 61.8652V61.8652ZM32.967 56.0887C32.3156 56.0887 31.8003 56.3114 31.421 56.7567C31.0416 57.1977 30.852 57.8079 30.852 58.5872C30.852 59.3379 31.0436 59.9295 31.427 60.3622C31.8103 60.7955 32.3236 61.0122 32.967 61.0122C33.6226 61.0122 34.1258 60.7997 34.4765 60.3747C34.8308 59.95 35.008 59.346 35.008 58.5627C35.008 57.771 34.8308 57.1607 34.4765 56.7317C34.1258 56.303 33.6226 56.0887 32.967 56.0887V56.0887ZM40.6055 61.6552C40.3665 61.7872 40.051 61.8532 39.659 61.8532C38.55 61.8532 37.9955 61.2347 37.9955 59.9977V56.2497H36.907V55.3837H37.9955V53.8377L39.01 53.5097V55.3837H40.6055V56.2497H39.01V59.8182C39.01 60.2429 39.0821 60.546 39.2265 60.7277C39.3705 60.909 39.6095 60.9997 39.9435 60.9997C40.1991 60.9997 40.4198 60.9297 40.6055 60.7897V61.6552ZM41.5765 61.4852V60.3967C42.1288 60.8047 42.737 61.0087 43.401 61.0087C44.2916 61.0087 44.737 60.712 44.737 60.1187C44.737 59.9494 44.6978 59.807 44.6195 59.6917C44.5451 59.572 44.442 59.4669 44.31 59.3762C44.1823 59.2855 44.0298 59.2052 43.8525 59.1352C43.6791 59.0609 43.4915 58.9845 43.2895 58.9062C43.0095 58.7949 42.7621 58.6835 42.5475 58.5722C42.3375 58.4569 42.1601 58.329 42.0155 58.1887C41.8755 58.0444 41.7683 57.8815 41.694 57.7002C41.624 57.5189 41.589 57.3065 41.589 57.0632C41.589 56.7665 41.657 56.5047 41.793 56.2777C41.929 56.0467 42.1103 55.855 42.337 55.7027C42.5636 55.546 42.8215 55.4284 43.1105 55.3497C43.4031 55.2714 43.7041 55.2322 44.0135 55.2322C44.5618 55.2322 45.0525 55.3272 45.4855 55.5172V56.5437C45.0195 56.2384 44.4833 56.0857 43.877 56.0857C43.6873 56.0857 43.5163 56.1084 43.364 56.1537C43.2113 56.195 43.0793 56.255 42.968 56.3337C42.8606 56.4117 42.7761 56.5064 42.7145 56.6177C42.6568 56.725 42.628 56.8447 42.628 56.9767C42.628 57.1414 42.6568 57.2794 42.7145 57.3907C42.7761 57.502 42.8648 57.601 42.9805 57.6877C43.0958 57.7744 43.236 57.8527 43.401 57.9227C43.566 57.9927 43.7536 58.069 43.964 58.1517C44.244 58.2587 44.4955 58.37 44.7185 58.4857C44.9411 58.597 45.1308 58.7249 45.2875 58.8692C45.4441 59.0092 45.5636 59.172 45.646 59.3577C45.7326 59.543 45.776 59.7635 45.776 60.0192C45.776 60.3325 45.706 60.6047 45.566 60.8357C45.4296 61.0667 45.246 61.2584 45.015 61.4107C44.7843 61.5634 44.5185 61.6769 44.2175 61.7512C43.9165 61.8255 43.601 61.8627 43.271 61.8627C42.6196 61.8627 42.0546 61.7369 41.576 61.4852H41.5765ZM50.272 61.6552C50.033 61.7872 49.7175 61.8532 49.3255 61.8532C48.2165 61.8532 47.662 61.2347 47.662 59.9977V56.2497H46.5735V55.3837H47.662V53.8377L48.6765 53.5097V55.3837H50.272V56.2497H48.6765V59.8182C48.6765 60.2429 48.7486 60.546 48.893 60.7277C49.037 60.909 49.276 60.9997 49.61 60.9997C49.8656 60.9997 50.0863 60.9297 50.272 60.7897V61.6552ZM54.9295 56.4102C54.7521 56.2742 54.4965 56.2062 54.1625 56.2062C53.7295 56.2062 53.3666 56.4102 53.074 56.8182C52.7853 57.2265 52.641 57.7832 52.641 58.4882V61.7167H51.627V55.3837H52.641V56.6887H52.666C52.8103 56.2434 53.0308 55.897 53.3275 55.6497C53.6241 55.398 53.9561 55.2722 54.3235 55.2722C54.5871 55.2722 54.7891 55.3012 54.9295 55.3592V56.4102ZM60.565 61.7152H59.5505V60.7252H59.5255C59.0845 61.4842 58.4353 61.8637 57.578 61.8637C56.947 61.8637 56.452 61.6967 56.093 61.3627C55.7386 61.0287 55.5615 60.5854 55.5615 60.0327C55.5615 58.8494 56.2581 58.161 57.6515 57.9677L59.5505 57.7012C59.5505 56.6252 59.1155 56.0872 58.2455 56.0872C57.4828 56.0872 56.7943 56.3469 56.18 56.8662V55.8272C56.8026 55.4315 57.5201 55.2337 58.3325 55.2337C59.8208 55.2337 60.565 56.0212 60.565 57.5962V61.7152ZM59.5505 58.5117L58.023 58.7217C57.553 58.7877 57.1983 58.9052 56.959 59.0742C56.72 59.2392 56.6005 59.534 56.6005 59.9587C56.6005 60.268 56.7098 60.5217 56.9285 60.7197C57.1511 60.913 57.446 61.0097 57.813 61.0097C58.316 61.0097 58.7303 60.8347 59.056 60.4847C59.386 60.13 59.551 59.6825 59.551 59.1422L59.5505 58.5117ZM63.515 60.8002H63.49V64.6287H62.476V55.3822H63.4905V56.4952H63.515C64.014 55.6542 64.7438 55.2337 65.7045 55.2337C66.5208 55.2337 67.1578 55.5182 67.6155 56.0872C68.0731 56.6519 68.302 57.4105 68.302 58.3632C68.302 59.4229 68.0443 60.2722 67.529 60.9112C67.0136 61.5462 66.3086 61.8637 65.414 61.8637C64.5933 61.8637 63.9603 61.509 63.515 60.7997V60.8002ZM63.49 58.2457V59.1307C63.49 59.654 63.6591 60.0992 63.9975 60.4662C64.3398 60.8292 64.7726 61.0107 65.296 61.0107C65.9106 61.0107 66.3911 60.7757 66.7375 60.3057C67.0875 59.8357 67.2625 59.182 67.2625 58.3447C67.2625 57.6397 67.0998 57.0872 66.7745 56.6872C66.4488 56.2872 66.0076 56.0872 65.451 56.0872C64.861 56.0872 64.3868 56.2934 64.0285 56.7057C63.6695 57.114 63.49 57.6274 63.49 58.2457V58.2457Z" fill="#7952B3"/>
</g>
<defs>
<filter id="filter0_d_251_595" x="0" y="-1" width="84" height="84" filterUnits="userSpaceOnUse" color-interpolation-filters="sRGB">
<feFlood flood-opacity="0" result="BackgroundImageFix"/>
<feColorMatrix in="SourceAlpha" type="matrix" values="0 0 0 0 0 0 0 0 0 0 0 0 0 0 0 0 0 0 127 0" result="hardAlpha"/>
<feOffset dy="8"/>
<feGaussianBlur stdDeviation="5"/>
<feComposite in2="hardAlpha" operator="out"/>
<feColorMatrix type="matrix" values="0 0 0 0 0 0 0 0 0 0 0 0 0 0 0 0 0 0 0.41 0"/>
<feBlend mode="normal" in2="BackgroundImageFix" result="effect1_dropShadow_251_595"/>
<feBlend mode="normal" in="SourceGraphic" in2="effect1_dropShadow_251_595" result="shape"/>
</filter>
</defs>
</svg>
