<svg width="66" height="84" viewBox="0 0 66 84" fill="none" xmlns="http://www.w3.org/2000/svg">
<g filter="url(#filter0_d_251_590)">
<path d="M10.835 15L14.8695 60.2465L32.9725 65.2715L51.126 60.24L55.165 15H10.835ZM45.44 40.244L44.265 51.19L44.2695 52.1275L33 55.275V55.2755L32.991 55.283L21.6315 52.1705L20.863 43.5H26.4335L26.8285 47.883L33.002 49.5305L33 49.538V49.522L39.197 47.7745L39.851 40.5H26.8975L26.7865 39.3225L26.5335 36.499L26.401 35H40.344L40.851 29.5H19.6145L19.503 28.2055L19.25 25.1905L19.1175 23.5H46.916L46.7825 25.167L45.44 40.244ZM45.5 9.187L41.9255 5H45.5V2.5H37.5V4.6815L41.695 8.5H37.5V11H45.5V9.187ZM36 9.187L32.5965 5H36V2.5H28.5V4.6815L32.3665 8.5H28.5V11H36V9.187ZM27 8.5H23V5H27V2.5H20V11H27V8.5Z" fill="#1572B6"/>
</g>
<defs>
<filter id="filter0_d_251_590" x="-9" y="0" width="84" height="84" filterUnits="userSpaceOnUse" color-interpolation-filters="sRGB">
<feFlood flood-opacity="0" result="BackgroundImageFix"/>
<feColorMatrix in="SourceAlpha" type="matrix" values="0 0 0 0 0 0 0 0 0 0 0 0 0 0 0 0 0 0 127 0" result="hardAlpha"/>
<feOffset dy="8"/>
<feGaussianBlur stdDeviation="5"/>
<feComposite in2="hardAlpha" operator="out"/>
<feColorMatrix type="matrix" values="0 0 0 0 0 0 0 0 0 0 0 0 0 0 0 0 0 0 0.41 0"/>
<feBlend mode="normal" in2="BackgroundImageFix" result="effect1_dropShadow_251_590"/>
<feBlend mode="normal" in="SourceGraphic" in2="effect1_dropShadow_251_590" result="shape"/>
</filter>
</defs>
</svg>
