<svg width="29" height="23" viewBox="0 0 29 23" fill="none" xmlns="http://www.w3.org/2000/svg">
<path fill-rule="evenodd" clip-rule="evenodd" d="M1.74733e-06 5.89396C0 5.92908 0 5.96443 0 5.99999V16.1667C0 18.9951 0 20.4093 0.87868 21.288C1.75736 22.1667 3.17157 22.1667 6 22.1667H22.5C25.3284 22.1667 26.7426 22.1667 27.6213 21.288C28.5 20.4093 28.5 18.9951 28.5 16.1667V6C28.5 5.96443 28.5 5.92908 28.5 5.89396L15.2213 13.271C14.6172 13.6066 13.8828 13.6066 13.2787 13.271L1.74733e-06 5.89396ZM0.0262167 3.75014C0.182282 3.7541 0.339719 3.79477 0.485643 3.87584L14.25 11.5227L28.0144 3.87584C28.1603 3.79477 28.3177 3.7541 28.4738 3.75014C28.4155 2.34583 28.2275 1.48483 27.6213 0.87868C26.7426 0 25.3284 0 22.5 0H6C3.17157 0 1.75736 0 0.87868 0.87868C0.272529 1.48483 0.084527 2.34583 0.0262167 3.75014Z" fill="#003049"/>
</svg>
