<svg width="45" height="64" viewBox="0 0 45 64" fill="none" xmlns="http://www.w3.org/2000/svg">
<path d="M4.29209 51.0369V54.5198H8.70263V56.2694H4.29209V61.0624H2.09496V49.2955H9.51638V51.0369H4.29209Z" fill="#CF2F00"/>
<path d="M13.2259 52.7133V61.0624H11.2078V52.7133H13.2259ZM13.5026 50.2801C13.5026 50.4537 13.4674 50.6165 13.3968 50.7684C13.3263 50.9203 13.2314 51.0532 13.112 51.1671C12.9981 51.2811 12.8625 51.3733 12.7051 51.4438C12.5478 51.5089 12.3796 51.5415 12.2006 51.5415C12.027 51.5415 11.8615 51.5089 11.7042 51.4438C11.5523 51.3733 11.4194 51.2811 11.3055 51.1671C11.1916 51.0532 11.0993 50.9203 11.0288 50.7684C10.9637 50.6165 10.9312 50.4537 10.9312 50.2801C10.9312 50.1011 10.9637 49.9329 11.0288 49.7756C11.0993 49.6183 11.1916 49.4827 11.3055 49.3687C11.4194 49.2548 11.5523 49.1653 11.7042 49.1002C11.8615 49.0297 12.027 48.9944 12.2006 48.9944C12.3796 48.9944 12.5478 49.0297 12.7051 49.1002C12.8625 49.1653 12.9981 49.2548 13.112 49.3687C13.2314 49.4827 13.3263 49.6183 13.3968 49.7756C13.4674 49.9329 13.5026 50.1011 13.5026 50.2801Z" fill="#CF2F00"/>
<path d="M18.4894 56.6844C18.7389 56.6844 18.9559 56.6518 19.1404 56.5867C19.3248 56.5162 19.4767 56.4213 19.5961 56.3019C19.7209 56.1826 19.8131 56.0388 19.8728 55.8706C19.9379 55.7024 19.9704 55.518 19.9704 55.3173C19.9704 54.905 19.8456 54.5795 19.5961 54.3408C19.352 54.0966 18.9831 53.9746 18.4894 53.9746C17.9957 53.9746 17.6241 54.0966 17.3745 54.3408C17.1304 54.5795 17.0084 54.905 17.0084 55.3173C17.0084 55.5126 17.0382 55.6943 17.0979 55.8625C17.163 56.0307 17.2552 56.1771 17.3745 56.3019C17.4993 56.4213 17.6539 56.5162 17.8384 56.5867C18.0283 56.6518 18.2453 56.6844 18.4894 56.6844ZM20.7598 61.4367C20.7598 61.2739 20.7109 61.141 20.6133 61.0379C20.5156 60.9349 20.3827 60.8562 20.2145 60.802C20.0464 60.7423 19.8484 60.6989 19.6205 60.6718C19.3981 60.6446 19.1594 60.6256 18.9044 60.6148C18.6548 60.5985 18.3944 60.585 18.1232 60.5741C17.8574 60.5633 17.597 60.5416 17.342 60.509C17.1196 60.6338 16.9378 60.7803 16.7968 60.9484C16.6612 61.1166 16.5933 61.3119 16.5933 61.5343C16.5933 61.6808 16.6286 61.8164 16.6991 61.9412C16.7751 62.0714 16.8917 62.1826 17.049 62.2748C17.2118 62.3671 17.4207 62.4376 17.6756 62.4864C17.9306 62.5407 18.2425 62.5678 18.6114 62.5678C18.9858 62.5678 19.3086 62.538 19.5798 62.4783C19.8511 62.424 20.0735 62.3454 20.2471 62.2423C20.4261 62.1446 20.5563 62.0253 20.6377 61.8842C20.7191 61.7486 20.7598 61.5994 20.7598 61.4367ZM22.7616 52.9981V53.7467C22.7616 53.9854 22.6178 54.1319 22.3303 54.1862L21.5816 54.3245C21.6956 54.612 21.7525 54.9267 21.7525 55.2684C21.7525 55.6807 21.6684 56.0551 21.5003 56.3914C21.3375 56.7223 21.1097 57.0044 20.8167 57.2377C20.5238 57.471 20.1766 57.6527 19.7751 57.7829C19.3791 57.9077 18.9505 57.9701 18.4894 57.9701C18.3266 57.9701 18.1693 57.962 18.0174 57.9457C17.8655 57.9294 17.7163 57.9077 17.5698 57.8806C17.3094 58.0379 17.1792 58.2142 17.1792 58.4095C17.1792 58.5777 17.2552 58.7025 17.4071 58.7838C17.5644 58.8598 17.7706 58.9141 18.0255 58.9466C18.2805 58.9792 18.5708 59.0008 18.8963 59.0117C19.2218 59.0171 19.5554 59.0334 19.8972 59.0605C20.239 59.0877 20.5726 59.1365 20.8981 59.207C21.2236 59.2721 21.5138 59.3779 21.7688 59.5244C22.0238 59.6708 22.2272 59.8716 22.3791 60.1265C22.5364 60.3761 22.6151 60.6989 22.6151 61.0949C22.6151 61.4638 22.5229 61.8219 22.3384 62.1691C22.1594 62.5163 21.8963 62.8255 21.5491 63.0967C21.2073 63.368 20.7842 63.585 20.2796 63.7477C19.7805 63.9159 19.2109 64 18.5708 64C17.9415 64 17.3935 63.9376 16.927 63.8128C16.4604 63.6935 16.0725 63.5307 15.7633 63.3246C15.4541 63.1239 15.2235 62.8906 15.0716 62.6248C14.9197 62.3589 14.8438 62.0823 14.8438 61.7947C14.8438 61.4041 14.9604 61.0786 15.1937 60.8182C15.4324 60.5524 15.7579 60.3408 16.1702 60.1835C15.9478 60.0696 15.7715 59.9177 15.6413 59.7278C15.5111 59.5379 15.446 59.2884 15.446 58.9792C15.446 58.8544 15.4677 58.7269 15.5111 58.5967C15.5599 58.4611 15.6277 58.3281 15.7145 58.1979C15.8067 58.0677 15.9206 57.9457 16.0563 57.8318C16.1919 57.7124 16.3519 57.6066 16.5364 57.5144C16.1132 57.2865 15.7796 56.9827 15.5355 56.603C15.2968 56.2232 15.1774 55.7784 15.1774 55.2684C15.1774 54.8561 15.2588 54.4845 15.4215 54.1536C15.5897 53.8173 15.8203 53.5324 16.1132 53.2992C16.4116 53.0605 16.7615 52.8787 17.163 52.754C17.5698 52.6292 18.012 52.5668 18.4894 52.5668C18.8474 52.5668 19.1838 52.6048 19.4984 52.6807C19.8131 52.7512 20.1006 52.857 20.361 52.9981H22.7616Z" fill="#CF2F00"/>
<path d="M24.199 61.0624V52.7133H25.4278C25.6882 52.7133 25.8591 52.8353 25.9404 53.0794L26.0706 53.6979C26.2171 53.5352 26.369 53.386 26.5263 53.2503C26.6891 53.1147 26.86 52.9981 27.039 52.9004C27.2234 52.8028 27.4187 52.7268 27.6249 52.6726C27.8365 52.6129 28.067 52.5831 28.3166 52.5831C28.8428 52.5831 29.2741 52.7268 29.6104 53.0143C29.9522 53.2965 30.2072 53.6735 30.3754 54.1455C30.5056 53.8688 30.6683 53.6328 30.8636 53.4375C31.0589 53.2368 31.2732 53.074 31.5065 52.9493C31.7398 52.8245 31.9866 52.7322 32.247 52.6726C32.5128 52.6129 32.7787 52.5831 33.0445 52.5831C33.5056 52.5831 33.9152 52.6536 34.2732 52.7946C34.6313 52.9357 34.9324 53.1418 35.1765 53.4131C35.4206 53.6843 35.6051 54.0153 35.7299 54.4059C35.8601 54.7965 35.9252 55.244 35.9252 55.7486V61.0624H33.9152V55.7486C33.9152 55.2169 33.7986 54.8182 33.5653 54.5523C33.332 54.2811 32.9902 54.1455 32.54 54.1455C32.3338 54.1455 32.1412 54.1807 31.9622 54.2513C31.7886 54.3218 31.634 54.4249 31.4983 54.5605C31.3681 54.6907 31.2651 54.8561 31.1891 55.0569C31.1132 55.2576 31.0752 55.4882 31.0752 55.7486V61.0624H29.0571V55.7486C29.0571 55.1898 28.9432 54.7829 28.7153 54.5279C28.4929 54.273 28.1647 54.1455 27.7307 54.1455C27.4377 54.1455 27.1638 54.2187 26.9088 54.3652C26.6592 54.5062 26.426 54.7015 26.209 54.9511V61.0624H24.199Z" fill="#CF2F00"/>
<path d="M42.409 57.4981C41.8285 57.5252 41.3402 57.5768 40.9442 57.6527C40.5482 57.7233 40.2308 57.8155 39.9921 57.9294C39.7534 58.0433 39.5825 58.1762 39.4795 58.3281C39.3764 58.48 39.3249 58.6455 39.3249 58.8245C39.3249 59.1772 39.4279 59.4294 39.6341 59.5813C39.8457 59.7332 40.1196 59.8092 40.456 59.8092C40.8683 59.8092 41.2236 59.7359 41.522 59.5895C41.8258 59.4376 42.1215 59.2097 42.409 58.9059V57.4981ZM37.8031 53.8769C38.7634 52.9981 39.9189 52.5587 41.2697 52.5587C41.758 52.5587 42.1947 52.64 42.5799 52.8028C42.965 52.9601 43.2905 53.1825 43.5564 53.4701C43.8222 53.7522 44.0229 54.0912 44.1585 54.4872C44.2996 54.8833 44.3701 55.3173 44.3701 55.7892V61.0624H43.4587C43.2688 61.0624 43.1224 61.0352 43.0193 60.981C42.9162 60.9213 42.8348 60.8047 42.7752 60.6311L42.5961 60.0289C42.3846 60.2188 42.1784 60.3869 41.9777 60.5334C41.777 60.6745 41.5681 60.7938 41.3511 60.8915C41.1341 60.9891 40.9008 61.0624 40.6513 61.1112C40.4071 61.1654 40.1359 61.1926 39.8375 61.1926C39.4849 61.1926 39.1594 61.1464 38.861 61.0542C38.5626 60.9566 38.305 60.8128 38.088 60.6229C37.871 60.4331 37.7028 60.1971 37.5834 59.915C37.4641 59.6329 37.4044 59.3047 37.4044 58.9303C37.4044 58.7187 37.4397 58.5099 37.5102 58.3037C37.5807 58.0922 37.6946 57.8914 37.852 57.7016C38.0147 57.5117 38.2236 57.3327 38.4786 57.1645C38.7335 56.9963 39.0455 56.8498 39.4144 56.7251C39.7887 56.6003 40.2227 56.4999 40.7164 56.424C41.21 56.3426 41.7742 56.2938 42.409 56.2775V55.7892C42.409 55.2305 42.2896 54.8182 42.0509 54.5523C41.8122 54.2811 41.4677 54.1455 41.0175 54.1455C40.692 54.1455 40.4207 54.1834 40.2037 54.2594C39.9921 54.3353 39.805 54.4221 39.6422 54.5198C39.4795 54.612 39.3303 54.6961 39.1947 54.7721C39.0645 54.848 38.918 54.886 38.7552 54.886C38.6142 54.886 38.4948 54.8507 38.3972 54.7802C38.2995 54.7042 38.2209 54.6174 38.1612 54.5198L37.8031 53.8769Z" fill="#CF2F00"/>
<path d="M8.21175 44.7665C12.3414 44.7665 15.6728 41.435 15.6728 37.3054V29.8443H8.21175C4.08213 29.8443 0.750671 33.1758 0.750671 37.3054C0.750671 41.435 4.08213 44.7665 8.21175 44.7665Z" fill="#0ACF83"/>
<path d="M0.750671 22.3833C0.750671 18.2536 4.08213 14.9222 8.21175 14.9222H15.6728V29.8443H8.21175C4.08213 29.8443 0.750671 26.5129 0.750671 22.3833Z" fill="#A259FF"/>
<path d="M0.750671 7.46108C0.750671 3.33146 4.08213 0 8.21175 0H15.6728V14.9222H8.21175C4.08213 14.9222 0.750671 11.5907 0.750671 7.46108Z" fill="#F24E1E"/>
<path d="M15.6728 0H23.1339C27.2635 0 30.595 3.33146 30.595 7.46108C30.595 11.5907 27.2635 14.9222 23.1339 14.9222H15.6728V0Z" fill="#FF7262"/>
<path d="M30.595 22.3833C30.595 26.5129 27.2635 29.8443 23.1339 29.8443C19.0043 29.8443 15.6728 26.5129 15.6728 22.3833C15.6728 18.2536 19.0043 14.9222 23.1339 14.9222C27.2635 14.9222 30.595 18.2536 30.595 22.3833Z" fill="#1ABCFE"/>
</svg>
