<svg width="84" height="85" viewBox="0 0 84 85" fill="none" xmlns="http://www.w3.org/2000/svg">
<g filter="url(#filter0_d_251_616)">
<path fill-rule="evenodd" clip-rule="evenodd" d="M42 2.75586C30.2535 2.75586 20.7275 12.2794 20.7275 24.0284C20.7275 33.4269 26.8225 41.4009 35.275 44.2134C36.338 44.4104 36.7285 43.7519 36.7285 43.1899C36.7285 42.6829 36.7085 41.0069 36.6995 39.2299C30.781 40.5164 29.5325 36.7199 29.5325 36.7199C28.565 34.2609 27.1705 33.6069 27.1705 33.6069C25.2405 32.2869 27.3155 32.3139 27.3155 32.3139C29.452 32.4639 30.577 34.5064 30.577 34.5064C32.474 37.7584 35.5535 36.8179 36.767 36.2744C36.9585 34.8994 37.5095 33.9604 38.118 33.4294C33.393 32.8919 28.426 31.0674 28.426 22.9164C28.426 20.5939 29.257 18.6964 30.618 17.2064C30.397 16.6704 29.669 14.5064 30.824 11.5764C30.824 11.5764 32.61 11.0054 36.674 13.7579C38.3715 13.2864 40.1915 13.0499 41.999 13.0419C43.807 13.0504 45.628 13.2869 47.328 13.7579C51.388 11.0059 53.172 11.5769 53.172 11.5769C54.33 14.5069 53.602 16.6704 53.381 17.2069C54.745 18.6959 55.57 20.5939 55.57 22.9169C55.57 31.0869 50.5935 32.8859 45.8565 33.4119C46.6195 34.0719 47.2995 35.3669 47.2995 37.3519C47.2995 40.1979 47.2755 42.4884 47.2755 43.1889C47.2755 43.7539 47.6585 44.4179 48.7365 44.2089C57.1845 41.3929 63.2715 33.4219 63.2715 24.0264C63.2725 12.2799 53.7485 2.75586 42 2.75586Z" fill="#181616"/>
<path d="M28.7851 33.2982C28.7376 33.4042 28.5711 33.4357 28.4201 33.3632C28.2651 33.2932 28.1791 33.1497 28.2291 33.0432C28.2741 32.9352 28.4411 32.9047 28.5956 32.9772C28.7506 33.0472 28.8386 33.1922 28.7856 33.2982H28.7851ZM29.6466 34.2602C29.5451 34.3537 29.3466 34.3102 29.2116 34.1612C29.0726 34.0127 29.0466 33.8142 29.1496 33.7192C29.2536 33.6252 29.4461 33.6692 29.5846 33.8177C29.7246 33.9677 29.7521 34.1642 29.6461 34.2597L29.6466 34.2602ZM30.4851 35.4842C30.3551 35.5752 30.1416 35.4902 30.0101 35.3007C29.8791 35.1122 29.8791 34.8857 30.0126 34.7942C30.1446 34.7032 30.3546 34.7852 30.4876 34.9727C30.6186 35.1652 30.6186 35.3927 30.4851 35.4847V35.4842ZM31.6341 36.6682C31.5176 36.7967 31.2691 36.7622 31.0876 36.5867C30.9016 36.4152 30.8501 36.1717 30.9666 36.0432C31.0851 35.9147 31.3346 35.9507 31.5176 36.1247C31.7026 36.2957 31.7586 36.5397 31.6341 36.6677V36.6682ZM33.2201 37.3552C33.1681 37.5222 32.9291 37.5977 32.6881 37.5272C32.4471 37.4542 32.2901 37.2592 32.3381 37.0912C32.3881 36.9232 32.6291 36.8447 32.8716 36.9202C33.1116 36.9922 33.2691 37.1852 33.2196 37.3552H33.2201ZM34.9601 37.4827C34.9666 37.6577 34.7621 37.8037 34.5091 37.8067C34.2551 37.8127 34.0491 37.6707 34.0461 37.4977C34.0461 37.3207 34.2461 37.1767 34.5001 37.1727C34.7531 37.1677 34.9601 37.3087 34.9601 37.4827ZM36.5801 37.2072C36.6101 37.3782 36.4351 37.5542 36.1836 37.6007C35.9366 37.6467 35.7086 37.5407 35.6766 37.3707C35.6466 37.1957 35.8251 37.0207 36.0716 36.9747C36.3231 36.9307 36.5481 37.0337 36.5801 37.2077V37.2072Z" fill="#181616"/>
<path d="M22.4274 56.619H17.0774C17.0111 56.619 16.9475 56.6454 16.9007 56.6922C16.8538 56.7391 16.8274 56.8027 16.8274 56.869V59.485C16.8274 59.5513 16.8538 59.6149 16.9007 59.6618C16.9475 59.7087 17.0111 59.735 17.0774 59.735H19.1639V62.985C19.1639 62.985 18.6954 63.145 17.3989 63.145C15.8709 63.145 13.7354 62.587 13.7354 57.891C13.7354 53.1945 15.9594 52.576 18.0474 52.576C19.8544 52.576 20.6324 52.894 21.1284 53.0475C21.2834 53.0945 21.4284 52.9395 21.4284 52.8015L22.0249 50.274C22.0259 50.2362 22.0177 50.1987 22.001 50.1647C21.9842 50.1307 21.9595 50.1013 21.9289 50.079C21.7274 49.935 20.5004 49.249 17.3999 49.249C13.8279 49.249 10.1639 50.768 10.1639 58.074C10.1639 65.379 14.3589 66.4675 17.8939 66.4675C20.8209 66.4675 22.5964 65.2165 22.5964 65.2165C22.6694 65.1765 22.6774 65.074 22.6774 65.0265V56.8685C22.6774 56.8022 22.6511 56.7386 22.6042 56.6917C22.5573 56.6449 22.4937 56.6185 22.4274 56.6185V56.619ZM49.7529 49.873H46.7399C46.7071 49.8732 46.6745 49.8798 46.6442 49.8925C46.6139 49.9052 46.5864 49.9238 46.5633 49.9471C46.5401 49.9705 46.5219 49.9982 46.5094 50.0286C46.497 50.0591 46.4907 50.0917 46.4909 50.1245L46.4919 55.9465H41.7959V50.1245C41.7961 50.0917 41.7899 50.0591 41.7775 50.0287C41.7651 49.9983 41.7469 49.9707 41.7238 49.9473C41.7007 49.924 41.6733 49.9054 41.643 49.8926C41.6127 49.8799 41.5803 49.8732 41.5474 49.873H38.5349C38.5021 49.8732 38.4695 49.8798 38.4392 49.8925C38.4089 49.9052 38.3814 49.9238 38.3583 49.9471C38.3351 49.9705 38.3169 49.9982 38.3044 50.0286C38.292 50.0591 38.2857 50.0917 38.2859 50.1245V65.8895C38.2859 66.028 38.3979 66.141 38.5349 66.141H41.5474C41.5803 66.1408 41.6128 66.1342 41.6431 66.1214C41.6734 66.1086 41.7009 66.09 41.724 66.0666C41.747 66.0432 41.7653 66.0154 41.7776 65.985C41.79 65.9545 41.7962 65.9219 41.7959 65.889V59.146H46.4919L46.4839 65.889C46.4839 66.028 46.5959 66.141 46.7339 66.141H49.7529C49.7858 66.1408 49.8183 66.1342 49.8486 66.1214C49.8789 66.1086 49.9064 66.09 49.9295 66.0666C49.9525 66.0432 49.9708 66.0154 49.9831 65.985C49.9955 65.9545 50.0017 65.9219 50.0014 65.889V50.124C50.0018 50.0912 49.9956 50.0586 49.9832 50.0282C49.9709 49.9977 49.9527 49.97 49.9295 49.9467C49.9064 49.9233 49.8789 49.9048 49.8486 49.8922C49.8183 49.8795 49.7858 49.873 49.7529 49.873V49.873ZM26.1699 50.2315C25.0979 50.2315 24.2279 51.108 24.2279 52.193C24.2279 53.2765 25.0979 54.1555 26.1699 54.1555C27.2429 54.1555 28.1124 53.2765 28.1124 52.193C28.1124 51.108 27.2424 50.2315 26.1699 50.2315ZM27.6479 55.0355H24.6449C24.5069 55.0355 24.3839 55.1775 24.3839 55.3155V65.7415C24.3839 66.048 24.5749 66.139 24.8219 66.139H27.5269C27.8244 66.139 27.8969 65.993 27.8969 65.7365V55.287C27.8971 55.2542 27.8907 55.2217 27.8783 55.1913C27.8659 55.1609 27.8475 55.1333 27.8244 55.11C27.8013 55.0866 27.7738 55.0681 27.7435 55.0554C27.7133 55.0428 27.6808 55.0362 27.6479 55.036V55.0355ZM61.4509 55.059H58.4609C58.4281 55.0593 58.3956 55.066 58.3654 55.0788C58.3352 55.0916 58.3078 55.1103 58.2847 55.1337C58.2617 55.1571 58.2435 55.1848 58.2312 55.2152C58.2189 55.2456 58.2127 55.2782 58.2129 55.311V63.041C58.2129 63.041 57.4529 63.596 56.3754 63.596C55.2979 63.596 55.0119 63.1075 55.0119 62.052V55.311C55.0122 55.2782 55.006 55.2456 54.9936 55.2151C54.9813 55.1846 54.963 55.1569 54.94 55.1335C54.9169 55.1101 54.8894 55.0915 54.8591 55.0787C54.8288 55.0659 54.7963 55.0592 54.7634 55.059H51.7294C51.663 55.0596 51.5996 55.0864 51.5529 55.1336C51.5062 55.1808 51.4802 55.2446 51.4804 55.311V62.562C51.4804 65.697 53.2279 66.464 55.6314 66.464C57.6034 66.464 59.1934 65.374 59.1934 65.374C59.1934 65.374 59.2684 65.949 59.3034 66.0165C59.3384 66.0845 59.4269 66.153 59.5234 66.153L61.4534 66.1445C61.4864 66.1444 61.519 66.1378 61.5494 66.125C61.5798 66.1123 61.6074 66.0937 61.6306 66.0703C61.6538 66.0469 61.6722 66.0192 61.6847 65.9887C61.6972 65.9582 61.7036 65.9255 61.7034 65.8925L61.7019 55.3095C61.7017 55.2432 61.6753 55.1797 61.6285 55.1327C61.5817 55.0857 61.5183 55.0591 61.4519 55.0585L61.4509 55.059ZM69.6219 54.705C67.9239 54.705 66.7689 55.4625 66.7689 55.4625V50.124C66.7691 50.0912 66.7629 50.0586 66.7505 50.0282C66.7381 49.9978 66.7199 49.9702 66.6968 49.9468C66.6737 49.9235 66.6463 49.9049 66.616 49.8921C66.5857 49.8794 66.5533 49.8727 66.5204 49.8725H63.4999C63.467 49.8725 63.4343 49.879 63.4039 49.8917C63.3735 49.9044 63.3459 49.9229 63.3226 49.9463C63.2994 49.9697 63.281 49.9974 63.2685 50.0279C63.2561 50.0584 63.2497 50.0911 63.2499 50.124V65.889C63.2497 65.922 63.2561 65.9547 63.2685 65.9852C63.281 66.0157 63.2994 66.0434 63.3226 66.0668C63.3459 66.0901 63.3735 66.1087 63.4039 66.1214C63.4343 66.134 63.467 66.1405 63.4999 66.1405H65.5959C65.6909 66.1405 65.7619 66.092 65.8144 66.0065C65.8659 65.9215 65.9414 65.2795 65.9414 65.2795C65.9414 65.2795 67.1764 66.4495 69.5154 66.4495C72.2604 66.4495 73.8354 65.0575 73.8354 60.1985C73.8354 55.3395 71.3204 54.7045 69.6214 54.7045L69.6219 54.705ZM68.4419 63.587C67.4054 63.5555 66.7019 63.085 66.7019 63.085V58.0925C66.7019 58.0925 67.3959 57.6675 68.2469 57.5905C69.3234 57.494 70.3609 57.8195 70.3609 60.3875C70.3609 63.096 69.8934 63.6305 68.4424 63.5865L68.4419 63.587ZM36.5974 63.528C36.4659 63.528 36.1289 63.5815 35.7824 63.5815C34.6724 63.5815 34.2959 63.0655 34.2959 62.3975V57.9645H36.5559C36.5889 57.9645 36.6216 57.958 36.6521 57.9453C36.6825 57.9326 36.7102 57.914 36.7334 57.8906C36.7567 57.8672 36.775 57.8394 36.7875 57.8088C36.7999 57.7782 36.8062 57.7455 36.8059 57.7125V55.2845C36.8061 55.2516 36.7997 55.219 36.7872 55.1885C36.7747 55.1581 36.7563 55.1304 36.7331 55.1071C36.7098 55.0838 36.6822 55.0653 36.6518 55.0527C36.6214 55.04 36.5889 55.0335 36.5559 55.0335H34.2959L34.2924 52.0485C34.2924 51.935 34.2344 51.8785 34.1034 51.8785H31.0234C30.9044 51.8785 30.8399 51.9315 30.8399 52.046V55.131C30.8399 55.131 29.2964 55.5035 29.1924 55.5335C29.1405 55.5487 29.0949 55.5802 29.0624 55.6235C29.03 55.6668 29.0124 55.7194 29.0124 55.7735V57.712C29.0122 57.7449 29.0185 57.7774 29.0309 57.8078C29.0433 57.8382 29.0615 57.8659 29.0846 57.8892C29.1077 57.9126 29.1351 57.9312 29.1654 57.9439C29.1956 57.9567 29.2281 57.9633 29.2609 57.9635H30.8399V62.6275C30.8399 66.0925 33.2699 66.4325 34.9099 66.4325C35.6584 66.4325 36.5549 66.1925 36.7029 66.1375C36.7929 66.104 36.8444 66.0115 36.8444 65.911L36.8464 63.7785C36.8454 63.7124 36.8188 63.6493 36.7721 63.6025C36.7255 63.5557 36.6625 63.5288 36.5964 63.5275L36.5974 63.528Z" fill="#100E0F"/>
</g>
<defs>
<filter id="filter0_d_251_616" x="0" y="0" width="84" height="84.4675" filterUnits="userSpaceOnUse" color-interpolation-filters="sRGB">
<feFlood flood-opacity="0" result="BackgroundImageFix"/>
<feColorMatrix in="SourceAlpha" type="matrix" values="0 0 0 0 0 0 0 0 0 0 0 0 0 0 0 0 0 0 127 0" result="hardAlpha"/>
<feOffset dy="8"/>
<feGaussianBlur stdDeviation="5"/>
<feComposite in2="hardAlpha" operator="out"/>
<feColorMatrix type="matrix" values="0 0 0 0 0 0 0 0 0 0 0 0 0 0 0 0 0 0 0.41 0"/>
<feBlend mode="normal" in2="BackgroundImageFix" result="effect1_dropShadow_251_616"/>
<feBlend mode="normal" in="SourceGraphic" in2="effect1_dropShadow_251_616" result="shape"/>
</filter>
</defs>
</svg>
