<svg width="84" height="64" viewBox="0 0 84 64" fill="none" xmlns="http://www.w3.org/2000/svg">
<g filter="url(#filter0_d_251_614)">
<path d="M48.002 25.2939C44.1745 25.2939 42.2725 27.2919 42.2725 30.1689C42.2725 32.0209 43.1985 33.3329 44.4245 33.9334C43.824 34.4839 43.324 34.9654 42.8735 35.4404C42.4225 35.9164 42.1475 36.4189 42.1475 36.9699C42.1475 37.6459 42.4225 38.2724 43.2485 38.6214C42.373 39.4484 41.872 40.0484 41.872 41.1749C41.872 43.1514 43.5985 44.3029 48.1275 44.3029C52.4815 44.3029 55.008 42.6774 55.008 39.7994C55.008 36.4729 52.4565 36.3474 48.1275 36.0714L45.6755 35.9214L46.5015 34.5954C46.951 34.7204 47.6775 34.8204 48.479 34.8204C51.631 34.8204 53.808 33.1944 53.808 30.4164C53.808 29.2654 53.2395 28.4649 52.7895 27.8889L55 27.7139V25.4999H50.3045C49.7295 25.4999 49.078 25.2939 48.002 25.2939V25.2939ZM49.128 39.5494C50.33 39.6244 51.281 39.6744 51.281 40.4764C51.281 41.8259 49.3035 41.9274 47.853 41.9274C46.101 41.9274 44.825 41.6264 44.825 40.6259C44.825 40.1249 45.15 39.6999 45.476 39.2999L49.128 39.5494V39.5494ZM48.1535 32.1934C46.5015 32.1934 45.826 31.3419 45.826 30.1164C45.826 28.4899 46.8515 27.8139 48.228 27.8139C49.654 27.8139 50.505 28.5899 50.505 30.0659C50.505 31.3679 49.554 32.1934 48.1535 32.1934ZM59.5865 23.3424C61.0375 23.3424 61.8635 22.5164 61.8635 21.0894C61.8635 19.6644 61.0375 18.8879 59.5865 18.8879C58.16 18.8879 57.334 19.6644 57.334 21.0894C57.334 22.5159 58.16 23.3424 59.5865 23.3424ZM61.5 35.7274V25.4999H56.6335L56.3585 27.4479L57.692 27.8849C57.943 27.9594 58 28.0964 58 28.3714V35.7274C58 36.1034 57.789 36.1784 57.4385 36.2289L56 36.4039V38.4999H63.5V36.4039L62.062 36.2289C61.6855 36.1784 61.5 36.1289 61.5 35.7274ZM72.709 35.2074C72.108 35.4324 71.393 35.6069 70.6915 35.6069C69.341 35.6069 69 35.0319 69 33.5554V27.4999H72.5V24.9999H69.181C68.9805 24.9999 69 24.9984 69 24.8234V21.4999H66.6035C66.3285 23.9999 65 25.0979 63 25.3489V27.4999H65.0015C65.202 27.4999 65 27.6764 65 27.8259V34.3814C65 37.2099 66.227 38.4104 69.204 38.4104C70.631 38.4104 72.2575 37.9349 73.334 37.4099L72.709 35.2074V35.2074ZM24.869 19.4029C24.7123 19.2462 24.5263 19.1219 24.3215 19.0371C24.1168 18.9523 23.8974 18.9087 23.6758 18.9087C23.4541 18.9087 23.2347 18.9523 23.03 19.0371C22.8252 19.1219 22.6392 19.2462 22.4825 19.4029L20.107 21.7784L23.1205 24.7919C23.4759 24.6709 23.8581 24.6522 24.2236 24.7379C24.5891 24.8236 24.9231 25.0102 25.1877 25.2766C25.4523 25.5429 25.6367 25.8782 25.7199 26.2443C25.8032 26.6103 25.7819 26.9924 25.6585 27.3469L28.563 30.2514C28.9922 30.1022 29.4595 30.1031 29.8881 30.254C30.3168 30.4049 30.6815 30.697 30.9225 31.0822C31.1635 31.4675 31.2666 31.9232 31.2148 32.3747C31.163 32.8262 30.9595 33.2467 30.6375 33.5674C30.4511 33.7541 30.2297 33.9021 29.9861 34.0031C29.7424 34.1041 29.4813 34.1561 29.2175 34.1561C28.9537 34.1561 28.6926 34.1041 28.4489 34.0031C28.2053 33.9021 27.9839 33.7541 27.7975 33.5674C27.2075 32.9769 26.9855 32.1104 27.285 31.3834L24.5 28.6749V35.8034C24.5 35.8979 24.9475 36.0239 25.107 36.1829C25.891 36.9669 25.929 38.2379 25.1445 39.0234C24.9599 39.2097 24.7402 39.3576 24.4981 39.4585C24.256 39.5594 23.9963 39.6113 23.734 39.6113C23.4717 39.6113 23.212 39.5594 22.9699 39.4585C22.7279 39.3576 22.5081 39.2097 22.3235 39.0234C21.5395 38.2379 21.549 36.9674 22.3335 36.1829C22.5275 35.9894 22.5 35.8429 23 35.7449V28.5504C22.5 28.4524 22.5365 28.3069 22.343 28.1124C22.0613 27.8307 21.8698 27.4716 21.7927 27.0808C21.7157 26.6899 21.7567 26.2849 21.9105 25.9174L18.9395 22.9459L11.095 30.7904C10.9382 30.9471 10.8137 31.1332 10.7289 31.338C10.644 31.5427 10.6003 31.7623 10.6003 31.9839C10.6003 32.2056 10.644 32.4251 10.7289 32.6299C10.8137 32.8347 10.9382 33.0208 11.095 33.1774L22.536 44.6179C22.8526 44.9342 23.2818 45.1118 23.7293 45.1118C24.1767 45.1118 24.6059 44.9342 24.9225 44.6179L36.31 33.2299C36.6263 32.9133 36.8039 32.484 36.8039 32.0364C36.8039 31.5889 36.6263 31.1596 36.31 30.8429L24.869 19.4029V19.4029Z" fill="#F34F29"/>
</g>
<defs>
<filter id="filter0_d_251_614" x="0" y="-2" width="84" height="84" filterUnits="userSpaceOnUse" color-interpolation-filters="sRGB">
<feFlood flood-opacity="0" result="BackgroundImageFix"/>
<feColorMatrix in="SourceAlpha" type="matrix" values="0 0 0 0 0 0 0 0 0 0 0 0 0 0 0 0 0 0 127 0" result="hardAlpha"/>
<feOffset dy="8"/>
<feGaussianBlur stdDeviation="5"/>
<feComposite in2="hardAlpha" operator="out"/>
<feColorMatrix type="matrix" values="0 0 0 0 0 0 0 0 0 0 0 0 0 0 0 0 0 0 0.41 0"/>
<feBlend mode="normal" in2="BackgroundImageFix" result="effect1_dropShadow_251_614"/>
<feBlend mode="normal" in="SourceGraphic" in2="effect1_dropShadow_251_614" result="shape"/>
</filter>
</defs>
</svg>
