<svg width="29" height="29" viewBox="0 0 29 29" fill="none" xmlns="http://www.w3.org/2000/svg">
<path fill-rule="evenodd" clip-rule="evenodd" d="M12.5798 0L12.5798 7.74654C11.6187 7.6461 10.6793 7.45463 9.78559 7.17699C8.40542 6.74823 7.17476 6.12673 6.15649 5.36303C5.48669 4.86068 4.92191 4.30686 4.46685 3.7205C6.64675 1.69545 9.46169 0.344683 12.5798 0ZM15.7465 1.21429e-05V7.74654C16.7077 7.6461 17.6471 7.45462 18.5408 7.17699C19.9209 6.74823 21.1516 6.12673 22.1699 5.36303C22.8396 4.8607 23.4044 4.3069 23.8595 3.72057C21.6796 1.69551 18.8647 0.344718 15.7465 1.21429e-05ZM25.9533 6.15719C25.401 6.78982 24.7689 7.37209 24.0699 7.89636C22.7357 8.89698 21.1737 9.67501 19.4802 10.2011C18.2799 10.574 17.0234 10.8173 15.7465 10.9274V12.5788L28.3261 12.5789C28.0647 10.216 27.2257 8.02736 25.9533 6.15719ZM28.3262 15.7455L15.7465 15.7455V17.3969C17.0234 17.5071 18.2799 17.7504 19.4802 18.1233C21.1737 18.6494 22.7357 19.4274 24.0699 20.428C24.7692 20.9525 25.4015 21.535 25.954 22.1679C27.2263 20.2975 28.0652 18.1086 28.3262 15.7455ZM23.8602 24.6048C23.405 24.0181 22.84 23.464 22.1699 22.9613C21.1516 22.1976 19.9209 21.5761 18.5408 21.1474C17.6471 20.8697 16.7077 20.6783 15.7465 20.5778V28.3261C18.865 27.9813 21.6802 26.6302 23.8602 24.6048ZM12.5798 28.3261L12.5798 20.5778C11.6187 20.6783 10.6793 20.8697 9.78559 21.1474C8.40542 21.5761 7.17476 22.1976 6.15649 22.9613C5.48631 23.464 4.92127 24.0181 4.46608 24.6048C6.64609 26.6303 9.46132 27.9813 12.5798 28.3261ZM2.37232 22.168C2.92478 21.535 3.55716 20.9525 4.25649 20.428C5.59065 19.4274 7.15271 18.6494 8.84612 18.1233C10.0464 17.7504 11.3029 17.5071 12.5798 17.3969V15.7455L0 15.7455C0.261083 18.1086 1.1 20.2976 2.37232 22.168ZM0.00018874 12.5788L12.5798 12.5788V10.9274C11.3029 10.8173 10.0464 10.574 8.84612 10.2011C7.15271 9.67501 5.59064 8.89698 4.25649 7.89636C3.55744 7.37207 2.92528 6.78978 2.37298 6.15712C1.10059 8.0273 0.261532 10.216 0.00018874 12.5788Z" fill="#003049"/>
</svg>
