<svg width="84" height="68" viewBox="0 0 84 68" fill="none" xmlns="http://www.w3.org/2000/svg">
<g filter="url(#filter0_d_251_610)">
<path d="M11.0005 45.229H13.0545V37.1175L16.2345 44.189C16.6095 45.045 17.123 45.3475 18.1305 45.3475C19.138 45.3475 19.632 45.045 20.007 44.189L23.187 37.1175V45.229H25.241V37.131C25.241 36.341 24.925 35.9585 24.273 35.7615C22.7125 35.2745 21.6655 35.696 21.1915 36.7495L18.071 43.7285L15.0495 36.749C14.595 35.696 13.5285 35.2745 11.968 35.761C11.316 35.9585 11 36.3405 11 37.1305V45.229H11.0005ZM26.9495 38.626H29.003V43.095C28.984 43.3375 29.081 43.9075 30.206 43.9255C30.78 43.9345 34.637 43.9255 34.673 43.9255V38.604H36.7315C36.741 38.604 36.7295 45.861 36.7295 45.891C36.7405 47.681 34.509 48.0695 33.48 48.0995H26.994V46.7175C27.005 46.7175 33.4755 46.719 33.4915 46.717C34.814 46.5775 34.6575 45.9205 34.657 45.6995V45.1605H30.2915C28.2605 45.142 26.9665 44.2555 26.95 43.2355C26.949 43.142 26.9945 38.671 26.9495 38.626V38.626Z" fill="#00618A"/>
<path d="M38.315 45.229H44.221C44.9125 45.229 45.5845 45.0845 46.1175 44.8345C47.006 44.4265 47.4405 43.8735 47.4405 43.1485V41.6475C47.4405 41.055 46.947 40.5015 45.979 40.1335C45.4655 39.9355 44.833 39.831 44.2205 39.831H41.7315C40.902 39.831 40.507 39.581 40.4085 39.028C40.389 38.962 40.389 38.9095 40.389 38.8435V37.9085C40.389 37.856 40.389 37.803 40.4085 37.7375C40.507 37.316 40.7245 37.1975 41.4555 37.1315L41.653 37.1185H47.5195V35.7495H41.752C40.9225 35.7495 40.488 35.802 40.093 35.9205C38.8685 36.3025 38.3345 36.908 38.3345 37.9615V39.1595C38.3345 40.0815 39.382 40.8715 41.1395 41.056C41.3375 41.0685 41.5345 41.0825 41.732 41.0825H43.8655C43.9445 41.0825 44.0235 41.0825 44.083 41.095C44.735 41.1475 45.011 41.2665 45.209 41.503C45.2597 41.5499 45.3 41.6069 45.3271 41.6704C45.3543 41.734 45.3677 41.8025 45.3665 41.8715V43.07C45.3665 43.2145 45.268 43.399 45.0705 43.557C44.893 43.715 44.5965 43.8205 44.2015 43.847L43.984 43.86H38.315V45.229ZM60.2555 42.846C60.2555 44.2545 61.3025 45.0445 63.4155 45.203C63.613 45.216 63.8105 45.229 64.008 45.229H69.361V43.86H63.969C62.764 43.86 62.31 43.557 62.31 42.8325V35.7485H60.256V42.846H60.2555ZM48.7515 42.917V38.0345C48.7515 36.7945 49.6225 36.042 51.3445 35.8045C51.528 35.7782 51.7131 35.765 51.8985 35.765H55.798C55.996 35.765 56.174 35.778 56.3715 35.8045C58.0935 36.042 58.965 36.794 58.965 38.0345V42.917C58.965 43.924 58.595 44.462 57.7425 44.813L59.7665 46.6395H57.381L55.744 45.1615L54.096 45.266H51.8985C51.4903 45.2634 51.0843 45.2057 50.6915 45.0945C49.385 44.7385 48.7515 44.052 48.7515 42.917V42.917ZM50.9685 42.7985C50.9685 42.8645 50.988 42.931 51.008 43.01C51.1265 43.5775 51.6615 43.894 52.4725 43.894H54.3385L52.6245 42.3465H55.01L56.5045 43.6965C56.7805 43.549 56.9615 43.325 57.025 43.0365C57.0445 42.9705 57.0445 42.9045 57.0445 42.8385V38.1545C57.0445 38.102 57.0445 38.0355 57.025 37.9695C56.906 37.4415 56.3715 37.1385 55.58 37.1385H52.472C51.562 37.1385 50.968 37.5345 50.968 38.1545V42.7985H50.9685Z" fill="#E48E00"/>
<path d="M71.168 33.4758C69.9055 33.4413 68.941 33.5588 68.116 33.9063C67.8815 34.0053 67.508 34.0078 67.47 34.3013C67.5985 34.4368 67.6185 34.6383 67.721 34.8043C67.918 35.1228 68.2505 35.5498 68.547 35.7733C68.8705 36.0178 69.2045 36.2798 69.5525 36.4918C70.17 36.8688 70.86 37.0838 71.4555 37.4608C71.806 37.6838 72.154 37.9638 72.4965 38.2153C72.666 38.3388 72.779 38.5323 72.9995 38.6098V38.5743C72.884 38.4273 72.854 38.2253 72.748 38.0713L72.281 37.6043C71.8245 36.9983 71.2455 36.4668 70.629 36.0248C70.138 35.6723 69.039 35.1958 68.834 34.6243L68.798 34.5888C69.146 34.5493 69.554 34.4233 69.875 34.3373C70.415 34.1923 70.8975 34.2298 71.455 34.0858L72.209 33.8698V33.7268C71.9275 33.4378 71.726 33.0548 71.419 32.7933C70.6155 32.1088 69.7375 31.4248 68.834 30.8538C68.333 30.5378 67.7135 30.3323 67.182 30.0643C67.004 29.9738 66.69 29.9273 66.5715 29.7768C66.292 29.4213 66.1405 28.9708 65.925 28.5563C65.4648 27.6609 65.0337 26.7507 64.6325 25.8273C64.3605 25.2048 64.1825 24.5908 63.843 24.0323C62.2125 21.3518 60.4575 19.7338 57.739 18.1438C57.1605 17.8053 56.464 17.6723 55.7285 17.4978L54.5435 17.4258C54.303 17.3253 54.052 17.0303 53.8255 16.8873C52.9245 16.3183 50.6145 15.0808 49.9475 16.7083C49.5265 17.7353 50.5775 18.7373 50.953 19.2578C51.2165 19.6228 51.5545 20.0318 51.743 20.4423C51.867 20.7123 51.888 20.9828 51.9945 21.2683C52.255 21.9713 52.4825 22.7368 52.82 23.3863C52.9905 23.7153 53.179 24.0618 53.3945 24.3558C53.5265 24.5358 53.7535 24.6158 53.789 24.8943C53.5675 25.2043 53.5545 25.6863 53.43 26.0788C52.869 27.8483 53.0805 30.0478 53.897 31.3573C54.1475 31.7598 54.7375 32.6218 55.5485 32.2908C56.258 32.0018 56.1 31.1063 56.303 30.3158C56.349 30.1373 56.3205 30.0053 56.4105 29.8853V29.9213L57.057 31.2138C57.5355 31.9843 58.384 32.7888 59.1035 33.3323C59.4765 33.6138 59.7705 34.1013 60.2525 34.2658V34.2293H60.217C60.123 34.0838 59.9775 34.0238 59.8575 33.9063C59.5765 33.6308 59.264 33.2888 59.032 32.9728C58.3775 32.0848 57.7995 31.1123 57.2725 30.1003C57.021 29.6173 56.8025 29.0843 56.5905 28.5923C56.5085 28.4028 56.5095 28.1158 56.3395 28.0183C56.1065 28.3783 55.765 28.6698 55.585 29.0953C55.298 29.7753 55.261 30.6048 55.1545 31.4648L55.0825 31.5003C54.582 31.3798 54.4065 30.8648 54.2205 30.4233C53.7505 29.3068 53.663 27.5083 54.077 26.2228C54.184 25.8898 54.6675 24.8423 54.4715 24.5348C54.378 24.2283 54.0695 24.0513 53.8975 23.8163C53.6718 23.5018 53.4793 23.1649 53.323 22.8108C52.938 21.9403 52.7585 20.9628 52.354 20.0823C52.16 19.6613 51.833 19.2358 51.564 18.8618C51.2665 18.4468 50.933 18.1418 50.702 17.6408C50.62 17.4628 50.5085 17.1773 50.63 16.9943C50.6685 16.8708 50.724 16.8193 50.846 16.7788C51.054 16.6183 51.634 16.8323 51.851 16.9223C52.427 17.1618 52.9075 17.3893 53.3955 17.7123C53.6295 17.8678 53.866 18.1678 54.1495 18.2508H54.4725C54.978 18.3668 55.5445 18.2863 56.0165 18.4298C56.8515 18.6838 57.5995 19.0783 58.2785 19.5073C60.348 20.8143 62.0395 22.6743 63.1975 24.8933C63.3835 25.2508 63.4645 25.5913 63.628 25.9703C63.959 26.7343 64.376 27.5208 64.705 28.2683C65.0335 29.0138 65.354 29.7663 65.8185 30.3868C66.0625 30.7128 67.0055 30.8878 67.434 31.0688C67.7345 31.1958 68.2265 31.3283 68.511 31.4993C69.0545 31.8273 69.5815 32.2178 70.091 32.5768C70.3455 32.7578 71.129 33.1513 71.168 33.4758V33.4758ZM55.1185 19.7963C54.9008 19.7927 54.6836 19.8169 54.472 19.8683V19.9038H54.508C54.6335 20.1623 54.855 20.3283 55.0105 20.5503L55.37 21.3043L55.4055 21.2688C55.628 21.1123 55.7295 20.8618 55.7285 20.4788C55.639 20.3848 55.626 20.2673 55.549 20.1558C55.447 20.0058 55.248 19.9218 55.1185 19.7963V19.7963Z" fill="#00618A"/>
</g>
<defs>
<filter id="filter0_d_251_610" x="-0.515452" y="-2.10309" width="85.0309" height="85.0309" filterUnits="userSpaceOnUse" color-interpolation-filters="sRGB">
<feFlood flood-opacity="0" result="BackgroundImageFix"/>
<feColorMatrix in="SourceAlpha" type="matrix" values="0 0 0 0 0 0 0 0 0 0 0 0 0 0 0 0 0 0 127 0" result="hardAlpha"/>
<feOffset dy="8.41236"/>
<feGaussianBlur stdDeviation="5.25773"/>
<feComposite in2="hardAlpha" operator="out"/>
<feColorMatrix type="matrix" values="0 0 0 0 0 0 0 0 0 0 0 0 0 0 0 0 0 0 0.41 0"/>
<feBlend mode="normal" in2="BackgroundImageFix" result="effect1_dropShadow_251_610"/>
<feBlend mode="normal" in="SourceGraphic" in2="effect1_dropShadow_251_610" result="shape"/>
</filter>
</defs>
</svg>
