<svg width="82" height="64" viewBox="0 0 82 64" fill="none" xmlns="http://www.w3.org/2000/svg">
<g filter="url(#filter0_d_251_601)">
<path d="M66.1625 40.3745C66.0175 40.3745 65.8735 40.3365 65.7465 40.2625L64.4215 39.4785C64.2235 39.368 64.32 39.3285 64.3855 39.306C64.6495 39.214 64.703 39.1925 64.9845 39.0335C65.014 39.017 65.0525 39.023 65.083 39.041L66.1005 39.6455C66.1194 39.6556 66.1406 39.6609 66.162 39.6609C66.1835 39.6609 66.2046 39.6556 66.2235 39.6455L70.192 37.355C70.2107 37.344 70.2262 37.3283 70.2369 37.3094C70.2476 37.2905 70.2531 37.2692 70.253 37.2475V32.6675C70.253 32.6455 70.2474 32.6239 70.2366 32.6047C70.2258 32.5855 70.2103 32.5694 70.1915 32.558L66.2245 30.2695C66.2057 30.2592 66.1847 30.2538 66.1633 30.2538C66.1418 30.2538 66.1208 30.2592 66.102 30.2695L62.1355 32.5585C62.1167 32.5699 62.1011 32.5859 62.0902 32.6049C62.0792 32.624 62.0733 32.6455 62.073 32.6675V37.2475C62.073 37.2915 62.0975 37.333 62.1355 37.3535L63.2225 37.982C63.8125 38.2765 64.174 37.9295 64.174 37.5805V33.058C64.174 32.9945 64.2255 32.944 64.289 32.944H64.7925C64.855 32.944 64.907 32.9945 64.907 33.058V37.5805C64.907 38.3675 64.4785 38.819 63.732 38.819C63.5025 38.819 63.322 38.819 62.818 38.571L61.7775 37.972C61.6509 37.8982 61.5459 37.7926 61.4729 37.6655C61.3999 37.5385 61.3615 37.3945 61.3615 37.248V32.668C61.3615 32.3705 61.52 32.093 61.7775 31.945L65.746 29.6515C65.8739 29.5819 66.0172 29.5454 66.1628 29.5454C66.3084 29.5454 66.4516 29.5819 66.5795 29.6515L70.548 31.945C70.805 32.0935 70.9645 32.371 70.9645 32.668V37.248C70.9643 37.3945 70.9257 37.5384 70.8526 37.6654C70.7796 37.7925 70.6745 37.8981 70.548 37.972L66.5795 40.263C66.4529 40.3365 66.3089 40.375 66.1625 40.3745ZM67.389 37.219C65.6515 37.219 65.288 36.4215 65.288 35.753C65.2881 35.7226 65.3003 35.6935 65.3219 35.672C65.3434 35.6506 65.3726 35.6385 65.403 35.6385H65.916C65.9435 35.6384 65.97 35.6481 65.991 35.6659C66.0119 35.6837 66.0257 35.7084 66.03 35.7355C66.107 36.258 66.3385 36.5215 67.389 36.5215C68.2245 36.5215 68.5805 36.3325 68.5805 35.8885C68.5805 35.6325 68.4795 35.443 67.1805 35.3155C66.0945 35.208 65.423 34.9685 65.423 34.099C65.423 33.2985 66.098 32.8205 67.229 32.8205C68.5005 32.8205 69.1295 33.262 69.209 34.209C69.2103 34.225 69.2082 34.241 69.2031 34.2561C69.1979 34.2712 69.1897 34.2852 69.179 34.297C69.1681 34.3084 69.1551 34.3175 69.1407 34.3237C69.1263 34.33 69.1107 34.3333 69.095 34.3335H68.5795C68.5535 34.3336 68.5283 34.3247 68.508 34.3084C68.4877 34.2921 68.4736 34.2694 68.468 34.244C68.344 33.694 68.044 33.5185 67.2285 33.5185C66.316 33.5185 66.21 33.837 66.21 34.0745C66.21 34.363 66.335 34.447 67.5675 34.61C68.787 34.7715 69.3665 34.9995 69.3665 35.857C69.367 36.7235 68.646 37.219 67.389 37.219" fill="#83CD29"/>
<path d="M57.991 34.2148C58.1475 34.1233 58.244 33.9563 58.244 33.7748V32.5978C58.244 32.4168 58.148 32.2498 57.991 32.1583L53.809 29.7303C53.7316 29.6853 53.6438 29.6616 53.5543 29.6614C53.4649 29.6612 53.377 29.6846 53.2995 29.7293L49.0915 32.1588C49.0143 32.2035 48.9502 32.2676 48.9056 32.3448C48.8611 32.4221 48.8376 32.5096 48.8375 32.5988V37.4568C48.8375 37.6393 48.9355 37.8083 49.0945 37.8988L53.276 40.2813C53.43 40.3698 53.619 40.3703 53.7745 40.2843L56.3035 38.8783C56.3428 38.8564 56.3757 38.8245 56.3987 38.7858C56.4216 38.7471 56.4339 38.7029 56.4342 38.6579C56.4345 38.6129 56.4228 38.5686 56.4004 38.5296C56.3779 38.4905 56.3455 38.4582 56.3065 38.4358L52.0725 36.0058C52.0336 35.9837 52.0013 35.9517 51.9789 35.913C51.9564 35.8744 51.9445 35.8305 51.9445 35.7858V34.2628C51.9445 34.1718 51.993 34.0883 52.0715 34.0433L53.39 33.2833C53.4285 33.2609 53.4722 33.2492 53.5167 33.2492C53.5612 33.2492 53.605 33.2609 53.6435 33.2833L54.962 34.0433C55.0006 34.0654 55.0328 34.0974 55.0552 34.1359C55.0775 34.1745 55.0894 34.2182 55.0895 34.2628V35.4608C55.0892 35.5056 55.1008 35.5497 55.1231 35.5885C55.1454 35.6274 55.1776 35.6596 55.2164 35.682C55.2553 35.7043 55.2993 35.716 55.3441 35.7158C55.3889 35.7156 55.4328 35.7035 55.4715 35.6808L57.991 34.2148" fill="#404137"/>
<path d="M53.492 33.9868C53.5069 33.9785 53.5237 33.9741 53.5407 33.9741C53.5578 33.9741 53.5746 33.9785 53.5895 33.9868L54.397 34.4533C54.427 34.4708 54.4455 34.5033 54.4455 34.5378V35.4703C54.4455 35.5053 54.427 35.5373 54.397 35.5548L53.5895 36.0208C53.5747 36.0294 53.5579 36.0339 53.5407 36.0339C53.5236 36.0339 53.5068 36.0294 53.492 36.0208L52.685 35.5548C52.6701 35.5463 52.6577 35.534 52.6491 35.5192C52.6405 35.5043 52.6359 35.4875 52.636 35.4703V34.5378C52.636 34.5033 52.6545 34.4708 52.685 34.4533L53.492 33.9868Z" fill="#83CD29"/>
<path d="M42.5415 35.9271C42.5415 35.9721 42.5175 36.0141 42.478 36.0371L41.033 36.8701C41.0138 36.8814 40.9918 36.8874 40.9695 36.8874C40.9472 36.8874 40.9253 36.8814 40.906 36.8701L39.461 36.0371C39.4417 36.0259 39.4257 36.0099 39.4146 35.9906C39.4034 35.9713 39.3976 35.9494 39.3975 35.9271V34.2581C39.3975 34.2131 39.422 34.1706 39.461 34.1476L40.906 33.3136C40.9253 33.3021 40.9473 33.296 40.9698 33.296C40.9922 33.296 41.0143 33.3021 41.0335 33.3136L42.479 34.1476C42.4982 34.159 42.514 34.1752 42.5251 34.1946C42.5361 34.2139 42.542 34.2358 42.542 34.2581V35.9271H42.5415ZM42.932 23.5691C42.8933 23.548 42.8497 23.5372 42.8055 23.5379C42.7614 23.5386 42.7182 23.5507 42.6801 23.573C42.642 23.5954 42.6104 23.6272 42.5883 23.6655C42.5662 23.7037 42.5544 23.747 42.554 23.7911V30.2486C42.5539 30.2798 42.5457 30.3103 42.5301 30.3373C42.5146 30.3643 42.4924 30.3868 42.4655 30.4026C42.4384 30.4181 42.4077 30.4262 42.3765 30.4262C42.3453 30.4262 42.3146 30.4181 42.2875 30.4026L41.2335 29.7951C41.1563 29.7507 41.0688 29.7273 40.9798 29.7273C40.8907 29.7273 40.8032 29.7507 40.726 29.7951L36.517 32.2241C36.4397 32.2688 36.3755 32.333 36.3308 32.4103C36.2861 32.4876 36.2626 32.5753 36.2625 32.6646V37.5241C36.2625 37.7056 36.3595 37.8731 36.5165 37.9646L40.7255 40.3951C40.8825 40.4861 41.0765 40.4861 41.234 40.3951L45.444 37.9646C45.5212 37.9198 45.5853 37.8556 45.6298 37.7783C45.6744 37.701 45.6979 37.6134 45.698 37.5241V25.4106C45.698 25.2266 45.598 25.0566 45.4375 24.9666L42.932 23.5691Z" fill="#404137"/>
<path d="M28.119 29.7035C28.1962 29.6588 28.2838 29.6353 28.373 29.6353C28.4622 29.6353 28.5498 29.6588 28.627 29.7035L32.836 32.132C32.993 32.223 33.09 32.391 33.09 32.5725V37.4335C33.09 37.615 32.993 37.783 32.836 37.874L28.6275 40.3045C28.5502 40.349 28.4625 40.3724 28.3733 40.3724C28.2841 40.3724 28.1964 40.349 28.119 40.3045L23.9115 37.874C23.8344 37.8292 23.7703 37.7649 23.7257 37.6876C23.6811 37.6103 23.6576 37.5227 23.6575 37.4335V32.572C23.6575 32.391 23.7545 32.223 23.9115 32.132L28.119 29.7035" fill="#83CD29"/>
<path d="M20.465 32.532C20.465 32.349 20.369 32.181 20.211 32.0905L16.0035 29.669C15.9328 29.6281 15.8531 29.6052 15.7715 29.6025H15.728C15.6464 29.6053 15.5667 29.6281 15.496 29.669L11.288 32.0905C11.2106 32.1353 11.1463 32.1997 11.1017 32.2772C11.057 32.3547 11.0335 32.4426 11.0335 32.532L11.0425 39.052C11.0425 39.143 11.09 39.2275 11.1695 39.2715C11.2076 39.2946 11.2512 39.3068 11.2958 39.3068C11.3403 39.3068 11.3839 39.2946 11.422 39.2715L13.922 37.8395C14.08 37.7455 14.1765 37.58 14.1765 37.3985V34.3525C14.1765 34.1705 14.2725 34.003 14.43 33.912L15.495 33.299C15.572 33.2538 15.6597 33.2301 15.749 33.2305C15.836 33.2305 15.925 33.2525 16.0025 33.299L17.0665 33.912C17.224 34.003 17.321 34.1705 17.321 34.3525V37.3985C17.321 37.58 17.4185 37.7465 17.5755 37.8395L20.0755 39.2715C20.1141 39.2936 20.1577 39.3051 20.2021 39.305C20.2465 39.3049 20.2901 39.2931 20.3286 39.2709C20.367 39.2487 20.399 39.2168 20.4212 39.1784C20.4435 39.14 20.4553 39.0964 20.4555 39.052L20.465 32.532" fill="#404137"/>
</g>
<defs>
<filter id="filter0_d_251_601" x="-1.51545" y="-2.10309" width="85.0309" height="85.0309" filterUnits="userSpaceOnUse" color-interpolation-filters="sRGB">
<feFlood flood-opacity="0" result="BackgroundImageFix"/>
<feColorMatrix in="SourceAlpha" type="matrix" values="0 0 0 0 0 0 0 0 0 0 0 0 0 0 0 0 0 0 127 0" result="hardAlpha"/>
<feOffset dy="8.41236"/>
<feGaussianBlur stdDeviation="5.25773"/>
<feComposite in2="hardAlpha" operator="out"/>
<feColorMatrix type="matrix" values="0 0 0 0 0 0 0 0 0 0 0 0 0 0 0 0 0 0 0.41 0"/>
<feBlend mode="normal" in2="BackgroundImageFix" result="effect1_dropShadow_251_601"/>
<feBlend mode="normal" in="SourceGraphic" in2="effect1_dropShadow_251_601" result="shape"/>
</filter>
</defs>
</svg>
