<svg width="27" height="28" viewBox="0 0 27 28" fill="none" xmlns="http://www.w3.org/2000/svg">
<path d="M2.82607 2.0906L3.79708 1.11959C4.41541 0.501256 5.41792 0.501255 6.03625 1.11959L10.1304 5.21375C10.7487 5.83208 10.7487 6.83459 10.1304 7.45292L7.29243 10.2909C6.8192 10.7641 6.70188 11.4871 7.00118 12.0857C8.73138 15.5461 11.5373 18.352 14.9976 20.0822C15.5962 20.3815 16.3192 20.2641 16.7924 19.7909L19.6304 16.9529C20.2487 16.3346 21.2513 16.3346 21.8696 16.9529L25.9637 21.0471C26.5821 21.6654 26.5821 22.6679 25.9637 23.2863L24.9927 24.2573C21.6498 27.6002 16.3574 27.9764 12.5752 25.1398L10.6619 23.7048C7.90132 21.6343 5.44902 19.182 3.37857 16.4214L1.94358 14.5081C-0.893022 10.726 -0.516906 5.43357 2.82607 2.0906Z" fill="#003049"/>
</svg>
