<svg width="84" height="75" viewBox="0 0 84 75" fill="none" xmlns="http://www.w3.org/2000/svg">
<g filter="url(#filter0_d_251_599)">
<path fill-rule="evenodd" clip-rule="evenodd" d="M10.6095 28.078C10.6095 28.4295 10.713 28.6615 10.771 28.887C11.149 30.3535 11.9615 31.612 12.9255 32.76C14.2985 34.396 15.98 35.713 17.7025 36.9515C19.1965 38.0255 20.721 39.0755 22.221 40.1415C22.4785 40.3245 22.722 40.535 23.0015 40.7595C22.761 40.8895 22.561 41.004 22.353 41.1095C20.3735 42.1135 18.469 43.239 16.7135 44.6025C15.6555 45.4245 14.6325 46.298 13.91 47.4395C12.7475 49.2755 12.336 51.2315 13.2025 53.32C13.4555 53.93 13.8415 54.457 14.386 54.8465C14.5625 54.9725 14.7605 55.0975 14.967 55.1465C15.496 55.271 16.035 55.3525 16.5705 55.451L18.087 55.45C19.764 55.3005 21.2905 54.726 22.67 53.774C24.826 52.286 26.2785 50.291 26.903 47.7305C27.357 45.8695 27.3755 44.0065 26.8405 42.154C26.7893 41.9824 26.7302 41.8132 26.6635 41.647C26.5985 41.4805 26.522 41.3185 26.432 41.111L29.87 39.134L29.9215 39.178C29.859 39.3825 29.7925 39.5865 29.736 39.793C29.3275 41.285 29.056 42.803 29.1535 44.3515C29.2575 46.0015 29.718 47.546 30.684 48.9245C31.465 50.0395 33.326 50.081 34.156 48.962C34.4505 48.5645 34.736 48.149 34.9505 47.7055C35.511 46.548 36.03 45.37 36.5655 44.2L36.659 43.986C36.6205 44.54 36.5755 45.0265 36.555 45.5135C36.523 46.274 36.5675 47.03 36.8275 47.7535C37.05 48.3725 37.4285 48.835 38.1375 48.9165C38.6225 48.972 39.009 48.75 39.3655 48.4685C39.9178 48.0321 40.3756 47.4879 40.711 46.869C41.6615 45.1235 42.6375 43.3885 43.499 41.599C44.431 39.6635 45.246 37.6715 46.1115 35.703L46.2545 35.354C46.459 36.1575 46.6015 36.9445 46.864 37.6895C47.169 38.554 47.5465 39.398 47.9575 40.2185C48.152 40.606 48.1295 40.8575 47.86 41.1825C46.732 42.5425 45.6235 43.919 44.514 45.294C44.2685 45.5975 44.024 45.9065 43.8195 46.238C43.6954 46.4473 43.6139 46.6791 43.5795 46.92C43.5451 47.1418 43.5979 47.3683 43.7268 47.552C43.8557 47.7357 44.0507 47.8624 44.271 47.9055C44.7155 48.0012 45.1714 48.0337 45.625 48.002C47.1735 47.888 48.5795 47.3445 49.8225 46.4235C51.433 45.2305 51.95 43.6025 51.56 41.673C51.4545 41.1495 51.268 40.6405 51.0865 40.136C51.005 39.9085 50.9995 39.749 51.148 39.537C52.4355 37.6985 53.5355 35.748 54.5585 33.7525C54.599 33.674 54.6405 33.5955 54.7115 33.5115C55.043 35.2365 55.542 36.899 56.436 38.4075C55.98 38.847 55.5285 39.2455 55.12 39.6845C54.2205 40.6515 53.4405 41.7015 53.0335 42.982C52.8585 43.534 52.724 44.095 52.802 44.6845C52.923 45.6 53.673 46.195 54.5735 45.9865C56.5005 45.5405 58.164 44.6325 59.3795 43.024C60.1975 41.941 60.272 40.733 59.9295 39.4675C59.8355 39.1235 59.724 38.785 59.604 38.3905C60.0795 38.243 60.543 38.066 61.0225 37.9565C63.512 37.3885 65.9745 37.4875 68.3735 38.3865C69.774 38.9115 70.9055 39.79 71.5765 41.172C72.396 42.8615 71.943 44.4645 70.3505 45.5325C70.202 45.632 70.032 45.7105 69.909 45.835C69.8696 45.8807 69.8401 45.934 69.8225 45.9917C69.8048 46.0494 69.7994 46.1101 69.8065 46.17C69.817 46.2315 69.9795 46.3085 70.073 46.3075C70.5965 46.3035 71.021 46.029 71.4285 45.747C72.4495 45.0405 73.1945 44.09 73.355 42.8385L73.3865 42.7445L73.348 41.9295C73.3325 41.8825 73.3595 41.836 73.356 41.8005C73.139 39.978 72.1655 38.5645 70.7495 37.4565C69.1095 36.174 67.173 35.646 65.125 35.5625C63.464 35.491 61.8051 35.7463 60.2425 36.314C59.794 36.4765 59.3495 36.669 58.8985 36.8505C58.838 36.741 58.773 36.636 58.7195 36.5275C58.2565 35.5795 57.6955 34.6735 57.5715 33.5865C57.4835 32.8145 57.3755 32.0435 57.559 31.28C57.7355 30.5455 57.9655 29.8235 58.182 29.099C58.2935 28.726 58.215 28.517 57.859 28.349C57.735 28.2871 57.6026 28.2437 57.466 28.22C56.591 28.093 55.728 28.1655 54.8805 28.412C54.5805 28.4995 54.3625 28.6675 54.296 28.9995C54.258 29.19 54.1805 29.3725 54.1265 29.5605C53.905 30.342 53.748 31.1385 53.39 31.883C52.493 33.7505 51.469 35.5475 50.421 37.3315C50.3075 37.524 50.188 37.713 50.045 37.9465C49.677 37.1765 49.2845 36.4855 49.1655 35.6755C49.031 34.7595 48.925 33.845 49.153 32.936C49.3225 32.258 49.544 31.5925 49.748 30.9235C49.8445 30.6055 49.8 30.4385 49.512 30.271C49.3665 30.1865 49.202 30.1115 49.038 30.087C48.1408 29.9503 47.2241 30.0253 46.361 30.306C46.0895 30.394 45.947 30.5695 45.864 30.8495C45.62 31.6755 45.412 32.5215 45.0695 33.307C43.6825 36.487 42.2555 39.6505 40.83 42.8135C40.5325 43.474 40.184 44.1115 39.8485 44.7545C39.7635 44.9175 39.6395 45.061 39.5335 45.214C39.4485 45.1135 39.4155 45.0445 39.416 44.9755C39.4185 44.569 39.37 44.1505 39.4475 43.7575C39.6855 42.5689 39.9485 41.3855 40.2365 40.208C40.4715 39.235 40.745 38.271 41.0055 37.3045C41.093 36.981 41.0945 36.6785 40.862 36.4065C40.4715 35.951 39.6555 35.851 39.1715 36.202L38.9575 36.323L38.999 35.978C39.101 35.2385 39.1215 34.5015 38.9185 33.773C38.6655 32.865 38.0175 32.3425 37.0755 32.3715C36.6365 32.385 36.1755 32.46 35.769 32.62C34.0595 33.29 32.745 34.4765 31.626 35.904C31.5223 36.0365 31.3937 36.1476 31.2475 36.231C29.801 37.033 28.35 37.825 26.8995 38.62L25.285 39.5045C24.852 39.0915 24.4585 38.663 24.012 38.2995C22.6485 37.1875 21.263 36.103 19.89 35.0035C18.673 34.029 17.494 33.014 16.592 31.7235C15.921 30.7635 15.4885 29.713 15.447 28.526C15.3945 27.0135 15.8235 25.6315 16.5935 24.345C17.5785 22.699 18.922 21.378 20.399 20.1815C21.9615 18.9165 23.6515 17.8425 25.403 16.862C27.8535 15.4905 30.374 14.2765 33.0765 13.475C35.8475 12.653 38.659 12.1825 41.559 12.5105C42.699 12.6395 43.806 12.9005 44.8225 13.458C45.601 13.8845 46.2395 14.443 46.5365 15.316C46.8295 16.175 46.8205 17.0455 46.6175 17.918C46.205 19.685 45.2375 21.1415 44.02 22.443C42.023 24.5765 39.587 26.029 36.8445 26.9885C35.2676 27.5409 33.627 27.8909 31.962 28.03C30.5975 28.1445 29.2615 28.0235 27.9695 27.549C27.114 27.2345 26.369 26.7535 25.77 26.0555C25.663 25.9305 25.526 25.795 25.3265 25.912C25.131 26.027 25.0965 26.213 25.162 26.4015C25.2715 26.7145 25.3725 27.0405 25.543 27.3205C25.9715 28.023 26.5965 28.5325 27.2845 28.9695C28.606 29.81 30.083 30.0925 31.6145 30.158C33.9385 30.2585 36.206 29.9115 38.4415 29.288C41.633 28.398 44.408 26.826 46.6335 24.346C48.4865 22.281 49.81 19.9505 50.0935 17.1365C50.232 15.763 50.0845 14.4175 49.4415 13.1645C48.744 11.807 47.635 10.7975 46.309 10.102C44.378 9.0895 42.294 8.5 40.143 8.5H37.988C35.383 8.5 32.8645 9.2465 30.4165 10.137C28.5635 10.8115 26.7465 11.6075 24.9825 12.4885C21.141 14.408 17.5635 16.7225 14.625 19.905C13.161 21.4905 11.9215 23.24 11.2085 25.3C10.9933 25.915 10.8079 26.5401 10.653 27.173M24.5725 45.1795C24.406 47.409 23.3955 49.2165 21.744 50.6805C20.815 51.5035 19.7495 52.0895 18.5085 52.2955C18.0585 52.37 17.598 52.388 17.1615 52.2015C16.539 51.9355 16.3995 51.383 16.3875 50.7945C16.369 49.8565 16.6975 49.0085 17.148 48.2015C17.736 47.1495 18.598 46.3475 19.5185 45.5985C20.9685 44.418 22.5415 43.419 24.1525 42.476L24.274 42.426C24.523 43.346 24.6415 44.2545 24.5725 45.1795V45.1795ZM37.1515 35.49C37.034 36.202 36.887 36.9145 36.679 37.6045C35.96 39.993 35.0365 42.3075 34.038 44.591C33.8535 45.0135 33.585 45.399 33.3515 45.7995C33.3118 45.8611 33.2642 45.9172 33.21 45.9665C32.921 46.252 32.647 46.237 32.501 45.8635C32.331 45.4295 32.2265 44.965 32.1365 44.5055C32.076 44.197 32.0905 43.873 32.0715 43.557C32.091 41.31 32.7765 39.268 33.9395 37.367C34.419 36.583 34.941 35.836 35.7385 35.34C35.9866 35.1858 36.255 35.0669 36.536 34.987C36.961 34.8675 37.222 35.064 37.1515 35.49V35.49ZM45.7335 46.424L48.818 42.8225C48.9465 44.16 46.673 46.83 45.7335 46.424ZM55.585 44.0005C55.367 44.1255 55.1295 44.2155 54.906 44.331C54.7015 44.437 54.634 44.33 54.628 44.154C54.625 44.0322 54.6407 43.9106 54.6745 43.7935C55.091 42.3245 55.8575 41.0705 56.998 40.0505L57.078 40.0095C57.6205 41.527 56.9935 43.1935 55.585 44.0005Z" fill="#CB6699"/>
</g>
<defs>
<filter id="filter0_d_251_599" x="-0.515452" y="-2.10309" width="85.0309" height="85.0309" filterUnits="userSpaceOnUse" color-interpolation-filters="sRGB">
<feFlood flood-opacity="0" result="BackgroundImageFix"/>
<feColorMatrix in="SourceAlpha" type="matrix" values="0 0 0 0 0 0 0 0 0 0 0 0 0 0 0 0 0 0 127 0" result="hardAlpha"/>
<feOffset dy="8.41236"/>
<feGaussianBlur stdDeviation="5.25773"/>
<feComposite in2="hardAlpha" operator="out"/>
<feColorMatrix type="matrix" values="0 0 0 0 0 0 0 0 0 0 0 0 0 0 0 0 0 0 0.41 0"/>
<feBlend mode="normal" in2="BackgroundImageFix" result="effect1_dropShadow_251_599"/>
<feBlend mode="normal" in="SourceGraphic" in2="effect1_dropShadow_251_599" result="shape"/>
</filter>
</defs>
</svg>
