<svg width="24" height="24" viewBox="0 0 24 24" fill="none" xmlns="http://www.w3.org/2000/svg">
<rect width="24" height="24" fill="white"/>
<g clip-path="url(#clip0_678_124)">
<rect width="19" height="21.6512" transform="translate(2 1)" fill="white"/>
<path d="M13.3943 11.8595H20.7185V20.5553C19.6628 21.3283 18.5363 21.8892 17.3392 22.238C16.1515 22.5867 14.9072 22.7611 13.6063 22.7611C11.9096 22.7611 10.3637 22.4972 8.96858 21.9693C7.58291 21.432 6.39519 20.6967 5.40542 19.7635C4.41565 18.8209 3.65212 17.7086 3.11481 16.4266C2.57751 15.1352 2.30886 13.7354 2.30886 12.2272C2.30886 10.6907 2.56337 9.28142 3.07239 7.99944C3.58142 6.70803 4.30725 5.59572 5.24988 4.66251C6.20195 3.7293 7.34725 3.00347 8.68579 2.48502C10.0338 1.96657 11.5373 1.70734 13.1963 1.70734C14.0541 1.70734 14.8601 1.77804 15.6142 1.91944C16.3683 2.06083 17.0611 2.25407 17.6927 2.49916C18.3337 2.74424 18.9181 3.03646 19.446 3.37581C19.9739 3.71516 20.4452 4.08279 20.8599 4.47869L19.4743 6.58548C19.2575 6.91541 18.9747 7.11807 18.6259 7.19348C18.2865 7.2689 17.9189 7.18406 17.523 6.93897C17.1459 6.71274 16.7877 6.5195 16.4484 6.35925C16.1185 6.18958 15.7791 6.05289 15.4303 5.9492C15.0816 5.84552 14.7139 5.7701 14.3275 5.72297C13.941 5.67584 13.5074 5.65228 13.0266 5.65228C12.1311 5.65228 11.3252 5.81252 10.6088 6.13302C9.89236 6.44409 9.27965 6.88713 8.77063 7.46213C8.27103 8.03714 7.88455 8.72998 7.61119 9.54065C7.33782 10.3419 7.20114 11.2374 7.20114 12.2272C7.20114 13.3206 7.35196 14.2915 7.6536 15.1399C7.95525 15.9883 8.37943 16.7047 8.92616 17.2891C9.48232 17.8735 10.1422 18.3213 10.9057 18.6324C11.6787 18.934 12.5317 19.0848 13.465 19.0848C14.04 19.0848 14.5584 19.0283 15.0203 18.9152C15.4916 18.802 15.9488 18.6512 16.3918 18.4627V15.3379H14.3557C14.0541 15.3379 13.8184 15.2577 13.6488 15.0975C13.4791 14.9372 13.3943 14.7346 13.3943 14.4895V11.8595Z" fill="url(#paint0_linear_678_124)"/>
</g>
<defs>
<linearGradient id="paint0_linear_678_124" x1="-3.88656" y1="8.30174" x2="-0.154753" y2="22.7127" gradientUnits="userSpaceOnUse">
<stop stop-color="#981818"/>
<stop offset="0.175" stop-color="#B30000"/>
<stop offset="0.305" stop-color="#B80000"/>
<stop offset="0.565" stop-color="#4B2B3B"/>
<stop offset="0.765" stop-color="#003F66"/>
<stop offset="1" stop-color="#003049"/>
</linearGradient>
<clipPath id="clip0_678_124">
<rect width="19" height="21.6512" fill="white" transform="translate(2 1)"/>
</clipPath>
</defs>
</svg>
