<svg width="24" height="24" viewBox="0 0 24 24" fill="none" xmlns="http://www.w3.org/2000/svg">
<path d="M8.95656 3.91377C10.6461 3.27786 12.4924 3.18716 14.2362 3.6544C14.8123 3.80878 15.4045 3.46687 15.5589 2.89072C15.7133 2.31458 15.3714 1.72238 14.7952 1.568C12.6155 0.983952 10.3077 1.09733 8.1957 1.89221C6.08374 2.6871 4.27382 4.12355 3.02013 5.99984C1.76643 7.87612 1.13195 10.098 1.20578 12.3534C1.27962 14.6087 2.05806 16.7843 3.43178 18.5746C4.80551 20.3649 6.7055 21.6799 8.86492 22.335C11.0243 22.99 13.3347 22.9522 15.4715 22.2268C17.6084 21.5015 19.4643 20.125 20.7787 18.2908C22.0932 16.4565 22.8 14.2566 22.8 12C22.8 11.4035 22.3165 10.92 21.72 10.92C21.1235 10.92 20.64 11.4035 20.64 12C20.64 13.8053 20.0745 15.5652 19.023 17.0326C17.9715 18.5 16.4867 19.6012 14.7772 20.1815C13.0678 20.7618 11.2195 20.792 9.49194 20.268C7.7644 19.7439 6.24441 18.6919 5.14543 17.2597C4.04645 15.8275 3.42369 14.087 3.36462 12.2827C3.30556 10.4784 3.81315 8.7009 4.8161 7.19987C5.81906 5.69884 7.26699 4.54968 8.95656 3.91377Z" fill="url(#paint0_linear_727_82)"/>
<path d="M21.4528 5.15118C21.8456 4.7023 21.8001 4.01999 21.3512 3.62722C20.9023 3.23444 20.22 3.27993 19.8272 3.72881L12.9267 11.6151L9.408 8.976C8.93082 8.61812 8.25388 8.71482 7.896 9.192C7.53812 9.66917 7.63482 10.3461 8.112 10.704L11.6307 13.3431C12.5346 14.021 13.8083 13.8877 14.5523 13.0374L21.4528 5.15118Z" fill="url(#paint1_linear_727_82)"/>
<defs>
<linearGradient id="paint0_linear_727_82" x1="-5.34" y1="7.14" x2="2.51188" y2="28.5026" gradientUnits="userSpaceOnUse">
<stop stop-color="#981818"/>
<stop offset="0.175" stop-color="#B30000"/>
<stop offset="0.305" stop-color="#B80000"/>
<stop offset="0.565" stop-color="#4B2B3B"/>
<stop offset="0.765" stop-color="#003F66"/>
<stop offset="1" stop-color="#003049"/>
</linearGradient>
<linearGradient id="paint1_linear_727_82" x1="-5.34" y1="7.14" x2="2.51188" y2="28.5026" gradientUnits="userSpaceOnUse">
<stop stop-color="#981818"/>
<stop offset="0.175" stop-color="#B30000"/>
<stop offset="0.305" stop-color="#B80000"/>
<stop offset="0.565" stop-color="#4B2B3B"/>
<stop offset="0.765" stop-color="#003F66"/>
<stop offset="1" stop-color="#003049"/>
</linearGradient>
</defs>
</svg>
