<svg width="24" height="24" viewBox="0 0 24 24" fill="none" xmlns="http://www.w3.org/2000/svg">
<g clip-path="url(#clip0_678_118)">
<rect width="24" height="24" fill="white"/>
<path d="M5 13.2083V3.94791C5 3.7564 5 3.66064 5.05949 3.60115C5.11899 3.54166 5.21474 3.54166 5.40625 3.54166H10.3233C10.5713 3.54166 10.6953 3.54166 10.7943 3.60382C10.8934 3.66599 10.9473 3.77763 11.055 4.00092L11.7783 5.49906C11.8861 5.72235 11.94 5.83399 12.039 5.89616C12.1381 5.95832 12.262 5.95832 12.51 5.95832H18.5938C18.7853 5.95832 18.881 5.95832 18.9405 6.01782C19 6.07731 19 6.17306 19 6.36457V15.2187C19 15.4102 19 15.506 18.9405 15.5655C18.881 15.625 18.7853 15.625 18.5938 15.625H12.51C12.262 15.625 12.1381 15.625 12.039 15.5628C11.94 15.5007 11.8861 15.389 11.7783 15.1657L11.055 13.6676C10.9473 13.4443 10.8934 13.3327 10.7943 13.2705C10.6953 13.2083 10.5713 13.2083 10.3234 13.2083H5ZM5 13.2083V20.4583" stroke="url(#paint0_linear_678_118)" stroke-width="2.5" stroke-linecap="round"/>
</g>
<defs>
<linearGradient id="paint0_linear_678_118" x1="0.761111" y1="8.19374" x2="7.80592" y2="24.056" gradientUnits="userSpaceOnUse">
<stop stop-color="#981818"/>
<stop offset="0.175" stop-color="#B30000"/>
<stop offset="0.305" stop-color="#B80000"/>
<stop offset="0.565" stop-color="#4B2B3B"/>
<stop offset="0.765" stop-color="#003F66"/>
<stop offset="1" stop-color="#003049"/>
</linearGradient>
<clipPath id="clip0_678_118">
<rect width="24" height="24" fill="white"/>
</clipPath>
</defs>
</svg>
