<svg width="24" height="24" viewBox="0 0 24 24" fill="none" xmlns="http://www.w3.org/2000/svg">
<path d="M10.604 5C10.3279 5 10.104 5.22386 10.104 5.5V6.05331H14.1616V5.5C14.1616 5.22386 13.9378 5 13.6616 5H10.604Z" fill="#2C2B2B"/>
<path fill-rule="evenodd" clip-rule="evenodd" d="M18.7514 12.9763L13.4294 14.159V13.1346L18.7814 11.9453C19.0101 11.8944 19.1729 11.6915 19.1729 11.4572V7.55331C19.1729 7.27717 18.949 7.05331 18.6729 7.05331H5.5C5.22386 7.05331 5 7.27717 5 7.55331V11.4572C5 11.6915 5.16277 11.8944 5.39153 11.9453L10.7435 13.1346V14.159L5.42147 12.9763V17.6945C5.42147 18.18 5.42253 18.4939 5.45362 18.7251C5.48278 18.942 5.52985 19.01 5.56791 19.0481C5.60598 19.0861 5.67395 19.1332 5.89082 19.1623C6.12207 19.1934 6.43593 19.1945 6.92147 19.1945H17.2514C17.737 19.1945 18.0508 19.1934 18.2821 19.1623C18.4989 19.1332 18.5669 19.0861 18.605 19.0481C18.643 19.01 18.6901 18.942 18.7193 18.7252C18.7504 18.4939 18.7514 18.18 18.7514 17.6945V12.9763ZM12.687 13.0982C12.687 13.2761 12.6097 13.4359 12.4868 13.5459V14.4996H11.6861V13.5459C11.5632 13.4359 11.4859 13.2761 11.4859 13.0982C11.4859 12.7665 11.7547 12.4977 12.0864 12.4977C12.4181 12.4977 12.687 12.7665 12.687 13.0982Z" fill="#2C2B2B"/>
<path fill-rule="evenodd" clip-rule="evenodd" d="M4 2C2.89543 2 2 2.89543 2 4V20C2 21.1046 2.89543 22 4 22H20C21.1046 22 22 21.1046 22 20V4C22 2.89543 21.1046 2 20 2H4ZM15.1616 6.05331V5.5C15.1616 4.67157 14.4901 4 13.6616 4H10.604C9.77557 4 9.10399 4.67157 9.10399 5.5V6.05331H5.5C4.67157 6.05331 4 6.72488 4 7.55331V11.4572C4 11.8742 4.17182 12.2581 4.45487 12.5332C4.4333 12.5891 4.42147 12.6498 4.42147 12.7132L4.42147 17.7274C4.42144 18.1707 4.42142 18.5526 4.46254 18.8584C4.5066 19.1862 4.60598 19.5003 4.86081 19.7552C5.11564 20.01 5.42981 20.1094 5.75757 20.1534C6.06339 20.1945 6.44528 20.1945 6.8885 20.1945H17.2843C17.7276 20.1945 18.1095 20.1945 18.4153 20.1534C18.7431 20.1094 19.0572 20.01 19.3121 19.7552C19.5669 19.5003 19.6663 19.1862 19.7104 18.8584C19.7515 18.5526 19.7514 18.1707 19.7514 17.7274L19.7514 12.7132C19.7514 12.6498 19.7396 12.5891 19.718 12.5332C20.0011 12.2581 20.1729 11.8742 20.1729 11.4572V7.55331C20.1729 6.72488 19.5013 6.05331 18.6729 6.05331H15.1616Z" fill="#2C2B2B"/>
</svg>
