<svg width="20" height="20" viewBox="0 0 20 20" fill="none" xmlns="http://www.w3.org/2000/svg">
<path fill-rule="evenodd" clip-rule="evenodd" d="M7.4 1.51282C7.4 1.23668 7.62386 1.01282 7.9 1.01282H12.2158C12.4919 1.01282 12.7158 1.23667 12.7158 1.51282V2.57692H7.4V1.51282ZM13.7158 1.51282V2.57692H18.4737C19.3021 2.57692 19.9737 3.24849 19.9737 4.07692V9.40025C19.9737 9.86932 19.7563 10.2964 19.4078 10.574C19.4333 10.634 19.4474 10.7 19.4474 10.7692V17.4872V17.5201V17.5202C19.4474 17.9634 19.4474 18.3453 19.4063 18.6511C19.3622 18.9788 19.2629 19.293 19.008 19.5478C18.7532 19.8027 18.439 19.902 18.1113 19.9461C17.8054 19.9872 17.4235 19.9872 16.9803 19.9872L16.9474 19.9872H3.05263L3.01973 19.9872C2.57648 19.9872 2.19457 19.9872 1.88874 19.9461C1.56098 19.902 1.2468 19.8027 0.991971 19.5478C0.73714 19.293 0.637768 18.9788 0.593702 18.6511C0.552584 18.3452 0.552605 17.9633 0.55263 17.5201L0.552631 17.4872V10.7692C0.552631 10.7 0.566717 10.634 0.592181 10.574C0.243674 10.2964 0.0263157 9.86932 0.0263157 9.40025V4.07692C0.0263157 3.24849 0.697886 2.57692 1.52631 2.57692H6.4V1.51282C6.4 0.684392 7.07157 0.0128174 7.9 0.0128174H12.2158C13.0442 0.0128174 13.7158 0.684391 13.7158 1.51282ZM12.7158 3.58974V3.57692H7.4V3.58974H6.4V3.57692H1.52631C1.25017 3.57692 1.02632 3.80078 1.02632 4.07692V9.40025C1.02632 9.6346 1.18908 9.83751 1.41785 9.88835L8.44737 11.4505V12.4749L1.55263 10.9427V17.4872C1.55263 17.9727 1.55369 18.2866 1.58478 18.5178C1.61394 18.7347 1.66102 18.8027 1.69908 18.8407C1.73714 18.8788 1.80511 18.9259 2.02198 18.955C2.25324 18.9861 2.56709 18.9872 3.05263 18.9872H16.9474C17.4329 18.9872 17.7468 18.9861 17.978 18.955C18.1949 18.9259 18.2629 18.8788 18.3009 18.8407C18.339 18.8027 18.3861 18.7347 18.4152 18.5178C18.4463 18.2866 18.4474 17.9727 18.4474 17.4872V10.9427L11.5526 12.4749V11.4505L18.5821 9.88835C18.8109 9.83751 18.9737 9.6346 18.9737 9.40025V4.07692C18.9737 3.80078 18.7498 3.57692 18.4737 3.57692H13.7158V3.58974H12.7158ZM10.5 11.809C10.6534 11.6717 10.75 11.4721 10.75 11.25C10.75 10.8358 10.4142 10.5 10 10.5C9.58579 10.5 9.25 10.8358 9.25 11.25C9.25 11.4721 9.34656 11.6717 9.5 11.809V13H10.5V11.809Z" fill="black"/>
</svg>
