<svg width="24" height="24" viewBox="0 0 24 24" fill="none" xmlns="http://www.w3.org/2000/svg">
<path fill-rule="evenodd" clip-rule="evenodd" d="M9.4 3.51282C9.4 3.23668 9.62386 3.01282 9.9 3.01282H14.2158C14.4919 3.01282 14.7158 3.23667 14.7158 3.51282V4.57692H9.4V3.51282ZM15.7158 3.51282V4.57692H20.4737C21.3021 4.57692 21.9737 5.24849 21.9737 6.07692V11.4003C21.9737 11.8693 21.7563 12.2964 21.4078 12.574C21.4333 12.634 21.4474 12.7 21.4474 12.7692V19.4872V19.5201V19.5202C21.4474 19.9634 21.4474 20.3453 21.4063 20.6511C21.3622 20.9788 21.2629 21.293 21.008 21.5478C20.7532 21.8027 20.439 21.902 20.1113 21.9461C19.8054 21.9872 19.4235 21.9872 18.9803 21.9872L18.9474 21.9872H5.05263L5.01973 21.9872C4.57648 21.9872 4.19457 21.9872 3.88874 21.9461C3.56098 21.902 3.2468 21.8027 2.99197 21.5478C2.73714 21.293 2.63777 20.9788 2.5937 20.6511C2.55258 20.3452 2.55261 19.9633 2.55263 19.5201L2.55263 19.4872V12.7692C2.55263 12.7 2.56672 12.634 2.59218 12.574C2.24367 12.2964 2.02632 11.8693 2.02632 11.4003V6.07692C2.02632 5.24849 2.69789 4.57692 3.52631 4.57692H8.4V3.51282C8.4 2.68439 9.07157 2.01282 9.9 2.01282H14.2158C15.0442 2.01282 15.7158 2.68439 15.7158 3.51282ZM14.7158 5.58974V5.57692H9.4V5.58974H8.4V5.57692H3.52631C3.25017 5.57692 3.02632 5.80078 3.02632 6.07692V11.4003C3.02632 11.6346 3.18908 11.8375 3.41785 11.8883L10.4474 13.4505V14.4749L3.55263 12.9427V19.4872C3.55263 19.9727 3.55369 20.2866 3.58478 20.5178C3.61394 20.7347 3.66102 20.8027 3.69908 20.8407C3.73714 20.8788 3.80511 20.9259 4.02198 20.955C4.25324 20.9861 4.56709 20.9872 5.05263 20.9872H18.9474C19.4329 20.9872 19.7468 20.9861 19.978 20.955C20.1949 20.9259 20.2629 20.8788 20.3009 20.8407C20.339 20.8027 20.3861 20.7347 20.4152 20.5178C20.4463 20.2866 20.4474 19.9727 20.4474 19.4872V12.9427L13.5526 14.4749V13.4505L20.5821 11.8883C20.8109 11.8375 20.9737 11.6346 20.9737 11.4003V6.07692C20.9737 5.80078 20.7498 5.57692 20.4737 5.57692H15.7158V5.58974H14.7158ZM12.5 13.809C12.6534 13.6717 12.75 13.4721 12.75 13.25C12.75 12.8358 12.4142 12.5 12 12.5C11.5858 12.5 11.25 12.8358 11.25 13.25C11.25 13.4721 11.3466 13.6717 11.5 13.809V15H12.5V13.809Z" fill="#070707"/>
</svg>
