<svg width="24" height="24" viewBox="0 0 24 24" fill="none" xmlns="http://www.w3.org/2000/svg">
<path d="M4.33553 5.04999C4.74974 5.04999 5.08553 4.71903 5.08553 4.30481C5.08553 3.8906 4.74974 3.55481 4.33553 3.55481C3.92131 3.55481 3.58553 3.8906 3.58553 4.30481C3.58553 4.71903 3.92131 5.04999 4.33553 5.04999Z" fill="black"/>
<path d="M7.5 4.29999C7.5 4.7142 7.16421 5.04999 6.75 5.04999C6.33579 5.04999 6 4.7142 6 4.29999C6 3.88577 6.33579 3.54999 6.75 3.54999C7.16421 3.54999 7.5 3.88577 7.5 4.29999Z" fill="black"/>
<path d="M9.25 5.04999C9.66421 5.04999 10 4.7142 10 4.29999C10 3.88577 9.66421 3.54999 9.25 3.54999C8.83579 3.54999 8.5 3.88577 8.5 4.29999C8.5 4.7142 8.83579 5.04999 9.25 5.04999Z" fill="black"/>
<path d="M13.706 9.21144C13.9047 9.26973 14.0066 9.4741 13.9336 9.66791L10.6835 18.2937C10.6104 18.4875 10.3901 18.5974 10.1914 18.5391C9.99266 18.4808 9.89075 18.2764 9.96378 18.0826L13.2139 9.4568C13.2869 9.26299 13.5072 9.15314 13.706 9.21144Z" fill="black"/>
<path d="M15.5465 18.6107C15.3479 18.8163 15 18.6757 15 18.3898C15 18.3075 15.032 18.2283 15.0892 18.169L18.7806 14.3474C18.9677 14.1536 18.9677 13.8464 18.7806 13.6526L15.0892 9.83101C15.032 9.77174 15 9.69256 15 9.61017C15 9.32431 15.3479 9.18372 15.5465 9.38933L19.6645 13.6526C19.8516 13.8464 19.8516 14.1536 19.6645 14.3474L15.5465 18.6107Z" fill="black"/>
<path d="M8.4535 9.38933C8.65209 9.18372 9 9.32431 9 9.61017C9 9.69256 8.96801 9.77174 8.91076 9.83101L5.21941 13.6526C5.19095 13.6821 5.16681 13.7142 5.14701 13.7481C5.14358 13.754 5.14027 13.7599 5.1371 13.7659C5.05969 13.9119 5.05969 14.0881 5.1371 14.2341C5.14027 14.2401 5.14358 14.246 5.14701 14.2519C5.16681 14.2858 5.19095 14.3179 5.21941 14.3474L8.91076 18.169C8.968 18.2283 9 18.3075 9 18.3898C9 18.6757 8.65209 18.8163 8.4535 18.6107L4.33553 14.3474C4.14837 14.1536 4.14837 13.8464 4.33553 13.6526L8.4535 9.38933Z" fill="black"/>
<path fill-rule="evenodd" clip-rule="evenodd" d="M2 2H22V22H2V2ZM21 3V6.00001H3V3H21ZM3 7H21V21H3V7Z" fill="black"/>
</svg>
