<svg width="24" height="24" viewBox="0 0 24 24" fill="none" xmlns="http://www.w3.org/2000/svg">
<path d="M18.7647 9.7H18.745L18.7647 9.72239V9.7Z" fill="#2C2B2B"/>
<path fill-rule="evenodd" clip-rule="evenodd" d="M18.5 9.7V19H5.5V5H13.2647V8.7C13.2647 9.25229 13.7124 9.7 14.2647 9.7H18.5ZM9.1255 7.74489H8.41527C8.4058 7.67197 8.38639 7.60616 8.35703 7.54744C8.32768 7.48873 8.28885 7.43854 8.24055 7.39688C8.19226 7.35521 8.13497 7.32349 8.06868 7.3017C8.00334 7.27898 7.9309 7.26761 7.85135 7.26761C7.71025 7.26761 7.58857 7.30218 7.48629 7.37131C7.38497 7.44044 7.30684 7.54034 7.25192 7.67102C7.19794 7.8017 7.17095 7.95985 7.17095 8.14545C7.17095 8.33864 7.19841 8.50057 7.25334 8.63125C7.30921 8.76099 7.38734 8.859 7.48771 8.92528C7.58904 8.99063 7.70883 9.0233 7.84709 9.0233C7.92474 9.0233 7.99529 9.01335 8.05874 8.99347C8.12313 8.97358 8.17948 8.9447 8.22777 8.90682C8.27701 8.86799 8.31726 8.82112 8.34851 8.76619C8.38071 8.71032 8.40296 8.64735 8.41527 8.57727L9.1255 8.58153C9.11319 8.71032 9.07578 8.83722 9.01328 8.96222C8.95173 9.08722 8.86698 9.20133 8.75902 9.30455C8.65107 9.40682 8.51944 9.48826 8.36413 9.54886C8.20978 9.60947 8.03269 9.63977 7.83288 9.63977C7.56963 9.63977 7.33383 9.58201 7.1255 9.46648C6.91811 9.35 6.75429 9.18049 6.63402 8.95795C6.51376 8.73542 6.45362 8.46458 6.45362 8.14545C6.45362 7.82538 6.5147 7.55407 6.63686 7.33153C6.75902 7.109 6.92427 6.93996 7.1326 6.82443C7.34093 6.7089 7.57436 6.65114 7.83288 6.65114C8.00902 6.65114 8.1719 6.67576 8.32152 6.725C8.47114 6.7733 8.60277 6.84432 8.71641 6.93807C8.83004 7.03087 8.92237 7.14498 8.9934 7.2804C9.06442 7.41581 9.10845 7.57064 9.1255 7.74489ZM10.1884 6.69091L10.8389 8.82159H10.8631L11.5136 6.69091H12.3006L11.319 9.6H10.383L9.40142 6.69091H10.1884ZM6.2647 11.7H17.7353V10.7H6.2647V11.7ZM17.7353 13.3H6.2647V12.3H17.7353V13.3ZM6.2647 14.9H17.7353V13.9H6.2647V14.9ZM17.7353 16.5H6.2647V15.5H17.7353V16.5Z" fill="#2C2B2B"/>
<path d="M17.763 8.7L14.2647 5.52825V8.7H17.763Z" fill="#2C2B2B"/>
<path fill-rule="evenodd" clip-rule="evenodd" d="M4 2C2.89543 2 2 2.89543 2 4V20C2 21.1046 2.89543 22 4 22H20C21.1046 22 22 21.1046 22 20V4C22 2.89543 21.1046 2 20 2H4ZM14.0679 4L19.5 8.92509L19.5 19.5C19.5 19.7761 19.2761 20 19 20H5C4.72386 20 4.5 19.7761 4.5 19.5V4.5C4.5 4.22386 4.72386 4 5 4H14.0679Z" fill="#2C2B2B"/>
</svg>
