<svg width="18" height="20" viewBox="0 0 18 20" fill="none" xmlns="http://www.w3.org/2000/svg">
<path fill-rule="evenodd" clip-rule="evenodd" d="M16.5 7H11.5C10.9477 7 10.5 6.55229 10.5 6V1H1.5V19H16.5V7ZM17.5 7V19.5C17.5 19.7761 17.2761 20 17 20H1C0.723858 20 0.5 19.7761 0.5 19.5V0.5C0.5 0.223857 0.723858 0 1 0H10.5H11.0597H11.2071L17.5 6.29289V6.3V7ZM15.7929 6L11.5 1.70711V6H15.7929ZM5.3608 4.14489H4.65057C4.6411 4.07197 4.62169 4.00616 4.59233 3.94744C4.56297 3.88873 4.52415 3.83854 4.47585 3.79688C4.42756 3.75521 4.37027 3.72348 4.30398 3.7017C4.23864 3.67898 4.16619 3.66761 4.08665 3.66761C3.94555 3.66761 3.82386 3.70218 3.72159 3.77131C3.62027 3.84044 3.54214 3.94034 3.48722 4.07102C3.43324 4.2017 3.40625 4.35985 3.40625 4.54545C3.40625 4.73864 3.43371 4.90057 3.48864 5.03125C3.54451 5.16098 3.62263 5.259 3.72301 5.32528C3.82434 5.39062 3.94413 5.4233 4.08239 5.4233C4.16004 5.4233 4.23059 5.41335 4.29403 5.39347C4.35843 5.37358 4.41477 5.3447 4.46307 5.30682C4.51231 5.26799 4.55256 5.22112 4.58381 5.16619C4.616 5.11032 4.63826 5.04735 4.65057 4.97727L5.3608 4.98153C5.34848 5.11032 5.31108 5.23722 5.24858 5.36222C5.18703 5.48722 5.10227 5.60133 4.99432 5.70455C4.88636 5.80682 4.75473 5.88826 4.59943 5.94886C4.44508 6.00947 4.26799 6.03977 4.06818 6.03977C3.80492 6.03977 3.56913 5.98201 3.3608 5.86648C3.15341 5.75 2.98958 5.58049 2.86932 5.35795C2.74905 5.13542 2.68892 4.86458 2.68892 4.54545C2.68892 4.22538 2.75 3.95407 2.87216 3.73153C2.99432 3.509 3.15956 3.33996 3.3679 3.22443C3.57623 3.1089 3.80966 3.05114 4.06818 3.05114C4.24432 3.05114 4.4072 3.07576 4.55682 3.125C4.70644 3.1733 4.83807 3.24432 4.9517 3.33807C5.06534 3.43087 5.15767 3.54498 5.22869 3.6804C5.29972 3.81581 5.34375 3.97064 5.3608 4.14489ZM6.42365 3.09091L7.07422 5.22159H7.09837L7.74893 3.09091H8.53587L7.55433 6H6.61825L5.63672 3.09091H6.42365ZM2.5 9.5H15.5V8.5H2.5V9.5ZM15.5 11.5H2.5V10.5H15.5V11.5ZM2.5 13.5H15.5V12.5H2.5V13.5ZM15.5 15.5H2.5V14.5H15.5V15.5Z" fill="black"/>
</svg>
