<svg width="24" height="24" viewBox="0 0 24 24" fill="none" xmlns="http://www.w3.org/2000/svg">
<path d="M7.21374 6.14489H6.50351C6.49404 6.07197 6.47463 6.00616 6.44527 5.94744C6.41591 5.88873 6.37709 5.83854 6.32879 5.79688C6.2805 5.75521 6.22321 5.72348 6.15692 5.7017C6.09158 5.67898 6.01913 5.66761 5.93959 5.66761C5.79849 5.66761 5.67681 5.70218 5.57453 5.77131C5.47321 5.84044 5.39508 5.94034 5.34016 6.07102C5.28618 6.2017 5.25919 6.35985 5.25919 6.54545C5.25919 6.73864 5.28665 6.90057 5.34158 7.03125C5.39745 7.16098 5.47557 7.259 5.57595 7.32528C5.67728 7.39062 5.79707 7.4233 5.93533 7.4233C6.01298 7.4233 6.08353 7.41335 6.14698 7.39347C6.21137 7.37358 6.26771 7.3447 6.31601 7.30682C6.36525 7.26799 6.4055 7.22112 6.43675 7.16619C6.46895 7.11032 6.4912 7.04735 6.50351 6.97727L7.21374 6.98153C7.20143 7.11032 7.16402 7.23722 7.10152 7.36222C7.03997 7.48722 6.95521 7.60133 6.84726 7.70455C6.73931 7.80682 6.60768 7.88826 6.45237 7.94886C6.29802 8.00947 6.12093 8.03977 5.92112 8.03977C5.65787 8.03977 5.42207 7.98201 5.21374 7.86648C5.00635 7.75 4.84252 7.58049 4.72226 7.35795C4.60199 7.13542 4.54186 6.86458 4.54186 6.54545C4.54186 6.22538 4.60294 5.95407 4.7251 5.73153C4.84726 5.509 5.01251 5.33996 5.22084 5.22443C5.42917 5.1089 5.6626 5.05114 5.92112 5.05114C6.09726 5.05114 6.26014 5.07576 6.40976 5.125C6.55938 5.1733 6.69101 5.24432 6.80465 5.33807C6.91828 5.43087 7.01061 5.54498 7.08163 5.6804C7.15266 5.81581 7.19669 5.97064 7.21374 6.14489Z" fill="black"/>
<path d="M8.27659 5.09091L8.92716 7.22159H8.95131L9.60188 5.09091H10.3888L9.40727 8H8.47119L7.48966 5.09091H8.27659Z" fill="black"/>
<path d="M4.35294 11.5H19.6471V10.5H4.35294V11.5Z" fill="black"/>
<path d="M19.6471 13.5H4.35294V12.5H19.6471V13.5Z" fill="black"/>
<path d="M4.35294 15.5H19.6471V14.5H4.35294V15.5Z" fill="black"/>
<path d="M19.6471 17.5H4.35294V16.5H19.6471V17.5Z" fill="black"/>
<path fill-rule="evenodd" clip-rule="evenodd" d="M22 21.5C22 21.7761 21.7761 22 21.5 22H2.5C2.22386 22 2 21.7761 2 21.5V2.5C2 2.22386 2.22386 2 2.5 2H14.5367L21 7.49378V7.45L22 8.3V21.5ZM21 9V21H3V3H13.8529V8C13.8529 8.55229 14.3007 9 14.8529 9H21ZM20.0515 8L14.8529 3.58122V8H20.0515Z" fill="black"/>
</svg>
