<svg width="24" height="24" viewBox="0 0 24 24" fill="none" xmlns="http://www.w3.org/2000/svg">
<path fill-rule="evenodd" clip-rule="evenodd" d="M4.61197 5.09091V8H5.43917V7.09659H6.00067C6.26248 7.09659 6.48864 7.0554 6.67914 6.97301C6.86965 6.89062 7.01615 6.77462 7.11865 6.625C7.22226 6.47443 7.27406 6.29877 7.27406 6.09801C7.27406 5.8982 7.22337 5.72301 7.12199 5.57244C7.02061 5.42093 6.87634 5.30303 6.68917 5.21875C6.50312 5.13352 6.28197 5.09091 6.02574 5.09091H4.61197ZM5.43917 6.54261V5.65767H5.84693C5.97059 5.65767 6.07476 5.67566 6.15943 5.71165C6.2441 5.74763 6.30816 5.79877 6.3516 5.86506C6.39505 5.9304 6.41678 6.00805 6.41678 6.09801C6.41678 6.18703 6.39505 6.26515 6.3516 6.33239C6.30816 6.39867 6.2441 6.45028 6.15943 6.48722C6.07587 6.52415 5.9717 6.54261 5.84693 6.54261H5.43917Z" fill="black"/>
<path fill-rule="evenodd" clip-rule="evenodd" d="M7.68182 5.09091V8H8.50902V7.00426H8.93271L9.55849 8H10.4609L9.75146 6.89328C9.93996 6.81947 10.0856 6.713 10.1885 6.57386C10.2921 6.43277 10.3439 6.26136 10.3439 6.05966C10.3439 5.8608 10.2932 5.68892 10.1918 5.54403C10.0905 5.3982 9.94619 5.28646 9.75902 5.20881C9.57297 5.13021 9.35183 5.09091 9.09559 5.09091H7.68182ZM8.50902 6.45028V5.65767H8.91678C9.04044 5.65767 9.14461 5.67282 9.22928 5.70312C9.31395 5.73248 9.37801 5.77699 9.42146 5.83665C9.46491 5.89536 9.48663 5.9697 9.48663 6.05966C9.48663 6.14962 9.46491 6.22348 9.42146 6.28125C9.37801 6.33807 9.31395 6.38068 9.22928 6.40909C9.14572 6.43655 9.04156 6.45028 8.91678 6.45028H8.50902Z" fill="black"/>
<path d="M4.35294 11.5H19.6471V10.5H4.35294V11.5Z" fill="black"/>
<path d="M4.35294 13.5H19.6471V12.5H4.35294V13.5Z" fill="black"/>
<path d="M4.35294 15.5H19.6471V14.5H4.35294V15.5Z" fill="black"/>
<path fill-rule="evenodd" clip-rule="evenodd" d="M16.9531 16H17.5719V16.1995C17.6414 16.2202 17.708 16.2477 17.771 16.2813L17.913 16.1392L18.3505 16.5767L18.2115 16.7157C18.2483 16.7825 18.2783 16.8537 18.3005 16.9281H18.5V17.5469H18.3005C18.279 17.6189 18.2503 17.6878 18.2152 17.7526L18.3563 17.8938L17.9188 18.3313L17.7776 18.1902C17.7128 18.2253 17.6439 18.254 17.5719 18.2755V18.475H16.9531V18.2755C16.8787 18.2533 16.8075 18.2233 16.7407 18.1865L16.6004 18.3268L16.1629 17.8893L16.3063 17.746C16.2727 17.683 16.2452 17.6164 16.2245 17.5469H16.025V16.9281H16.2245C16.246 16.8561 16.2747 16.7872 16.3098 16.7224L16.1687 16.5812L16.6062 16.1437L16.7474 16.2848C16.8122 16.2497 16.8811 16.221 16.9531 16.1995V16ZM17.7266 17.2375C17.7266 17.4938 17.5188 17.7016 17.2625 17.7016C17.0062 17.7016 16.7984 17.4938 16.7984 17.2375C16.7984 16.9812 17.0062 16.7734 17.2625 16.7734C17.5188 16.7734 17.7266 16.9812 17.7266 17.2375Z" fill="black"/>
<path fill-rule="evenodd" clip-rule="evenodd" d="M15.125 17.125H14.675V17.2701C14.6226 17.2857 14.5725 17.3066 14.5254 17.3322L14.4227 17.2295L14.1045 17.5477L14.2072 17.6504C14.1816 17.6975 14.1607 17.7476 14.1451 17.8H14V18.25H14.1451C14.1602 18.3006 14.1802 18.349 14.2045 18.3948L14.1003 18.499L14.4185 18.8172L14.5205 18.7152C14.5691 18.742 14.6208 18.7638 14.675 18.7799V18.925H15.125V18.7799C15.1774 18.7643 15.2275 18.7434 15.2746 18.7178L15.3773 18.8205L15.6955 18.5023L15.5928 18.3996C15.6184 18.3525 15.6393 18.3024 15.6549 18.25H15.8V17.8H15.6549C15.6388 17.7458 15.617 17.6941 15.5902 17.6455L15.6913 17.5444L15.3731 17.2262L15.2698 17.3295C15.224 17.3052 15.1756 17.2852 15.125 17.2701V17.125ZM14.9 18.3625C15.0864 18.3625 15.2375 18.2114 15.2375 18.025C15.2375 17.8386 15.0864 17.6875 14.9 17.6875C14.7136 17.6875 14.5625 17.8386 14.5625 18.025C14.5625 18.2114 14.7136 18.3625 14.9 18.3625Z" fill="black"/>
<path fill-rule="evenodd" clip-rule="evenodd" d="M16.25 18.7H16.7V18.8451C16.7506 18.8602 16.799 18.8802 16.8448 18.9045L16.9481 18.8012L17.2663 19.1194L17.1652 19.2205C17.192 19.2691 17.2138 19.3208 17.2299 19.375H17.375V19.825H17.2299C17.2143 19.8774 17.1934 19.9275 17.1678 19.9746L17.2705 20.0773L16.9523 20.3955L16.8496 20.2928C16.8025 20.3184 16.7524 20.3393 16.7 20.3549V20.5H16.25V20.3549C16.1958 20.3388 16.1441 20.317 16.0955 20.2902L15.9935 20.3922L15.6753 20.074L15.7795 19.9698C15.7552 19.924 15.7352 19.8756 15.7201 19.825H15.575V19.375H15.7201C15.7357 19.3226 15.7566 19.2725 15.7822 19.2254L15.6795 19.1227L15.9977 18.8045L16.1004 18.9072C16.1475 18.8816 16.1976 18.8607 16.25 18.8451V18.7ZM16.8125 19.6C16.8125 19.7864 16.6614 19.9375 16.475 19.9375C16.2886 19.9375 16.1375 19.7864 16.1375 19.6C16.1375 19.4136 16.2886 19.2625 16.475 19.2625C16.6614 19.2625 16.8125 19.4136 16.8125 19.6Z" fill="black"/>
<path fill-rule="evenodd" clip-rule="evenodd" d="M22 8.29289V21.5C22 21.7761 21.7366 22 21.4118 22H2.58824C2.26336 22 2 21.7761 2 21.5V2.5C2 2.22386 2.26336 2 2.58824 2H14.5966L22 8.29289ZM21 9H14.9412C14.2914 9 13.7647 8.55229 13.7647 8V7.42585C13.6253 7.61587 13.4445 7.76274 13.2224 7.86648C12.9762 7.98201 12.6999 8.03977 12.3936 8.03977C12.0861 8.03977 11.8092 7.98153 11.563 7.86506C11.3168 7.74858 11.1213 7.57955 10.9764 7.35795C10.8327 7.13542 10.7609 6.86458 10.7609 6.54545C10.7609 6.22538 10.8327 5.95407 10.9764 5.73153C11.1213 5.509 11.3168 5.33996 11.563 5.22443C11.8092 5.1089 12.0861 5.05114 12.3936 5.05114C12.6999 5.05114 12.9762 5.1089 13.2224 5.22443C13.4445 5.32817 13.6253 5.47504 13.7647 5.66506V3H3V21H21V9ZM14.65 3.5L19.9916 8H14.65V3.5ZM13.0871 6.06534C13.1506 6.19602 13.1823 6.35606 13.1823 6.54545C13.1823 6.73485 13.1506 6.89489 13.0871 7.02557C13.0247 7.15625 12.9344 7.25521 12.8163 7.32244C12.6994 7.38968 12.5584 7.4233 12.3936 7.4233C12.2298 7.4233 12.0888 7.38968 11.9708 7.32244C11.8527 7.25521 11.7619 7.15625 11.6984 7.02557C11.636 6.89489 11.6048 6.73485 11.6048 6.54545C11.6048 6.35606 11.636 6.19602 11.6984 6.06534C11.7619 5.93466 11.8527 5.8357 11.9708 5.76847C12.0888 5.70123 12.2298 5.66761 12.3936 5.66761C12.5584 5.66761 12.6994 5.70123 12.8163 5.76847C12.9344 5.8357 13.0247 5.93466 13.0871 6.06534Z" fill="black"/>
</svg>
