<svg width="24" height="24" viewBox="0 0 24 24" fill="none" xmlns="http://www.w3.org/2000/svg">
<path fill-rule="evenodd" clip-rule="evenodd" d="M13.1624 2.70183L13.9373 2.50304L14.0014 2.75293C14.0951 2.75651 14.1874 2.76954 14.277 2.79132L14.4092 2.56781L15.0977 2.97519L14.9683 3.19391C15.0359 3.26575 15.0962 3.34519 15.1479 3.43134L15.3978 3.36724L15.5966 4.14215L15.3467 4.20625C15.343 4.30332 15.3292 4.3988 15.306 4.49135L15.5281 4.62277L15.1207 5.31128L14.8986 5.17985C14.8286 5.24473 14.7516 5.30282 14.6683 5.3528L14.7324 5.60269L13.9575 5.80147L13.8934 5.55158C13.793 5.54775 13.6943 5.53307 13.5988 5.50844L13.4682 5.72921L12.7797 5.32182L12.9132 5.09626C12.8509 5.02823 12.7951 4.95363 12.7468 4.87317L12.497 4.93727L12.2982 4.16236L12.5481 4.09826C12.5518 4.00119 12.5656 3.9057 12.5888 3.81316L12.3667 3.68174L12.7741 2.99323L12.9962 3.12465C13.0661 3.05978 13.1432 3.00169 13.2265 2.95171L13.1624 2.70183ZM14.5286 4.00317C14.6109 4.32415 14.4174 4.6511 14.0965 4.73344C13.7755 4.81578 13.4485 4.62232 13.3662 4.30134C13.2839 3.98036 13.4773 3.65341 13.7983 3.57107C14.1193 3.48873 14.4462 3.68219 14.5286 4.00317Z" fill="black"/>
<path fill-rule="evenodd" clip-rule="evenodd" d="M19.5189 3.70562L20.677 4.17603L20.5253 4.54948C20.6397 4.6411 20.7435 4.74322 20.8358 4.85381L21.2096 4.69595L21.6959 5.84748L21.3301 6.00196C21.3482 6.15499 21.3502 6.31087 21.3351 6.46711L21.7085 6.61881L21.2381 7.77691L20.8647 7.62522C20.7698 7.74371 20.6637 7.85078 20.5486 7.94549L20.7054 8.31697L19.5539 8.80325L19.397 8.43176C19.2489 8.44824 19.0981 8.44964 18.947 8.435L18.7954 8.80846L17.6372 8.33804L17.7889 7.96459C17.6664 7.86649 17.5561 7.75635 17.459 7.63666L17.0898 7.79258L16.6035 6.64104L16.9808 6.48173C16.9658 6.33847 16.965 6.19287 16.9792 6.04696L16.6057 5.89527L17.0761 4.73716L17.4496 4.88885C17.5444 4.77036 17.6506 4.66329 17.7657 4.56858L17.6088 4.1971L18.7603 3.71082L18.9172 4.08231C19.0654 4.06583 19.2161 4.06444 19.3672 4.07907L19.5189 3.70562ZM20.0257 6.60985C19.8309 7.08955 19.284 7.32047 18.8043 7.12562C18.3246 6.93077 18.0937 6.38393 18.2885 5.90423C18.4834 5.42452 19.0302 5.1936 19.5099 5.38846C19.9896 5.58331 20.2206 6.13014 20.0257 6.60985Z" fill="black"/>
<path fill-rule="evenodd" clip-rule="evenodd" d="M20.5916 10.7275L19.955 10.4365L19.8611 10.6418C19.777 10.63 19.6926 10.6271 19.6093 10.6328L19.5304 10.4212L18.8745 10.6656L18.9533 10.8772C18.8867 10.9274 18.8247 10.9848 18.7688 11.0488L18.5635 10.955L18.2725 11.5916L18.4778 11.6854C18.4664 11.7667 18.4633 11.8482 18.4682 11.9287L18.2533 12.0088L18.4977 12.6648L18.7081 12.5864C18.7595 12.6557 18.8186 12.72 18.8848 12.7778L18.7909 12.9831L19.4276 13.2741L19.5214 13.0688C19.6056 13.0806 19.69 13.0834 19.7733 13.0778L19.8521 13.2894L20.5081 13.045L20.4292 12.8334C20.4959 12.7832 20.5578 12.7258 20.6138 12.6618L20.8191 12.7556L21.1101 12.119L20.9048 12.0251C20.917 11.9381 20.9196 11.8508 20.9132 11.7648L21.1215 11.6871L20.8771 11.0312L20.6642 11.1105C20.6152 11.0464 20.5596 10.9868 20.4978 10.9328L20.5916 10.7275ZM19.473 12.3328C19.7367 12.4533 20.0482 12.3373 20.1688 12.0735C20.2893 11.8098 20.1732 11.4984 19.9095 11.3778C19.6458 11.2573 19.3343 11.3733 19.2138 11.637C19.0933 11.9007 19.2093 12.2122 19.473 12.3328Z" fill="black"/>
<path d="M13.0491 11.3042C12.885 11.6633 12.466 11.8237 12.1133 11.6625C11.7606 11.5013 11.6077 11.0795 11.7719 10.7204C11.936 10.3613 12.355 10.2009 12.7077 10.3621C13.0604 10.5233 13.2133 10.9451 13.0491 11.3042Z" fill="black"/>
<path fill-rule="evenodd" clip-rule="evenodd" d="M17 12.1538C17 14.3496 15.8514 17.0877 14.2817 18.7603C14.0575 18.9992 13.9372 19.3218 13.9816 19.6464L14.1485 20.8642C14.2308 21.4649 13.764 22 13.1578 22H9.21455C8.93989 22 8.70059 21.8128 8.63448 21.5462C8.55775 21.2368 8.25187 21.0437 7.93697 21.0933C7.20511 21.2084 6.49666 21.2579 5.9666 21.1795C5.84864 21.162 5.73856 21.1492 5.63531 21.1372C5.02262 21.066 4.65037 21.0228 4.29849 20.1981C4.22985 20.0372 4.2175 19.8581 4.24836 19.686L4.46828 18.4594L4.93364 18.4023C5.03799 18.3895 5.05225 18.2442 4.95264 18.2086L4.53968 18.0612L4.6269 17.5747C4.63377 17.5364 4.6379 17.4977 4.64203 17.4589C4.64417 17.4388 4.64632 17.4186 4.64885 17.3985C4.655 17.3498 4.66493 17.2981 4.67518 17.2447C4.71154 17.0555 4.752 16.8449 4.64259 16.6667C4.48676 16.4128 4.01462 16.2244 3.75992 16.2564C3.68821 16.2654 3.61315 16.2768 3.53601 16.2886C3.17088 16.3441 2.75912 16.4066 2.43591 16.2564C1.92047 16.0168 1.79244 15.3863 2.43591 14.6154C2.89436 14.0661 3.44744 13.3943 3.53925 12.9744C3.55974 12.8806 3.58337 12.7877 3.60699 12.6949C3.69036 12.3671 3.77355 12.0401 3.71766 11.6803C3.61888 11.0445 3.50423 10.3066 3.75992 9.28205C4.20126 7.51359 7.19571 6 9.49729 6C13.6409 6 17 8.52859 17 12.1538ZM12.7773 9.08382L13.6288 9.47304L13.501 9.7526C13.5834 9.82535 13.6575 9.90579 13.7226 9.99234L14.0091 9.88268L14.331 10.7709L14.0507 10.8782C14.0586 10.995 14.0542 11.1135 14.0371 11.2318L14.3116 11.3573L13.9154 12.2242L13.6408 12.0987C13.5652 12.1861 13.4815 12.2645 13.3916 12.3333L13.4955 12.6199L12.6131 12.9577L12.5093 12.6711C12.3975 12.6796 12.2843 12.6765 12.1715 12.6612L12.0437 12.9408L11.1922 12.5515L11.32 12.272C11.2317 12.1941 11.153 12.1074 11.0846 12.0138L10.8017 12.1221L10.4798 11.2339L10.7689 11.1232C10.763 11.0139 10.7679 10.9033 10.7839 10.7928L10.5093 10.6673L10.9056 9.80039L11.1802 9.9259C11.2558 9.83849 11.3394 9.76006 11.4294 9.69127L11.3255 9.40473L12.2078 9.06693L12.3117 9.35348C12.4235 9.34503 12.5367 9.34811 12.6495 9.36338L12.7773 9.08382Z" fill="black"/>
</svg>
