<svg width="24" height="24" viewBox="0 0 24 24" fill="none" xmlns="http://www.w3.org/2000/svg">
<path d="M14.1711 5.23106C14.2379 5.49447 14.0809 5.76278 13.8203 5.83035C13.5597 5.89792 13.2943 5.73916 13.2274 5.47576C13.1606 5.21235 13.3176 4.94404 13.5782 4.87647C13.8388 4.8089 14.1042 4.96766 14.1711 5.23106Z" fill="#2C2B2B"/>
<path d="M18.6338 7.37021C18.4756 7.76387 18.0317 7.95337 17.6423 7.79347C17.2528 7.63357 17.0654 7.18481 17.2235 6.79115C17.3817 6.39749 17.8257 6.20798 18.2151 6.36789C18.6045 6.52779 18.792 6.97654 18.6338 7.37021Z" fill="#2C2B2B"/>
<path d="M18.75 11.8539C18.6521 12.0704 18.3992 12.1656 18.1851 12.0667C17.9711 11.9678 17.8768 11.7121 17.9747 11.4957C18.0725 11.2793 18.3254 11.1841 18.5395 11.283C18.7536 11.3819 18.8478 11.6375 18.75 11.8539Z" fill="#2C2B2B"/>
<path fill-rule="evenodd" clip-rule="evenodd" d="M13.4406 9.71986L12.7493 9.40046L12.6456 9.62987C12.554 9.61734 12.4621 9.61481 12.3713 9.62175L12.287 9.3866L11.5707 9.6638L11.6551 9.89895C11.582 9.9554 11.5141 10.0198 11.4528 10.0915L11.2298 9.9885L10.9081 10.6999L11.1311 10.8029C11.118 10.8936 11.1141 10.9844 11.1188 11.074L10.8842 11.1649L11.1455 11.8938L11.3752 11.8049C11.4307 11.8817 11.4946 11.9529 11.5662 12.0168L11.4625 12.2462L12.1538 12.5656L12.2575 12.3362C12.3491 12.3487 12.441 12.3513 12.5318 12.3443L12.6161 12.5795L13.3324 12.3023L13.2481 12.0671C13.3211 12.0107 13.389 11.9463 13.4503 11.8746L13.6733 11.9776L13.995 11.2661L13.772 11.1631C13.786 11.0661 13.7895 10.9688 13.7831 10.873L14.0107 10.785L13.7493 10.056L13.5168 10.146C13.4639 10.075 13.4038 10.009 13.3369 9.94928L13.4406 9.71986ZM12.97 11.2226C12.8368 11.5173 12.4966 11.6489 12.2103 11.5166C11.9239 11.3843 11.7998 11.0382 11.9331 10.7435C12.0663 10.4488 12.4065 10.3172 12.6928 10.4495C12.9792 10.5818 13.1033 10.9279 12.97 11.2226Z" fill="#2C2B2B"/>
<path fill-rule="evenodd" clip-rule="evenodd" d="M4 2C2.89543 2 2 2.89543 2 4V20C2 21.1046 2.89543 22 4 22H20C21.1046 22 22 21.1046 22 20V4C22 2.89543 21.1046 2 20 2H4ZM13.062 4.16313L13.691 4L13.7431 4.20507C13.8192 4.208 13.8941 4.2187 13.9668 4.23657L14.0742 4.05315L14.6331 4.38746L14.5281 4.56695C14.5829 4.62591 14.6319 4.6911 14.6739 4.7618L14.8768 4.70919L15.0381 5.34512L14.8353 5.39772C14.8323 5.47738 14.821 5.55574 14.8022 5.63168L14.9825 5.73953L14.6518 6.30455L14.4715 6.1967C14.4147 6.24994 14.3521 6.29761 14.2845 6.33863L14.3366 6.54369L13.7075 6.70682L13.6554 6.50175C13.5739 6.49861 13.4938 6.48657 13.4163 6.46635L13.3102 6.64752L12.7513 6.3132L12.8596 6.1281C12.8091 6.07227 12.7638 6.01105 12.7246 5.94502L12.5217 5.99763L12.3604 5.3617L12.5632 5.3091C12.5662 5.22944 12.5775 5.15108 12.5963 5.07513L12.416 4.96728L12.7467 4.40227L12.927 4.51012C12.9838 4.45688 13.0464 4.40921 13.114 4.36819L13.062 4.16313ZM18.2224 4.98688L19.1626 5.37292L19.0394 5.67939C19.1323 5.75458 19.2166 5.83838 19.2915 5.92913L19.595 5.79959L19.9898 6.74458L19.6928 6.87135C19.7075 6.99694 19.7091 7.12486 19.6968 7.25308L20 7.37756L19.6181 8.32795L19.3149 8.20347C19.2379 8.30071 19.1518 8.38857 19.0583 8.46629L19.1856 8.77115L18.2508 9.1702L18.1234 8.86535C18.0032 8.87887 17.8808 8.88002 17.7581 8.86801L17.635 9.17448L16.6948 8.78844L16.8179 8.48197C16.7185 8.40146 16.6289 8.31107 16.5501 8.21285L16.2503 8.34081L15.8556 7.39581L16.1618 7.26507C16.1497 7.14751 16.1491 7.02802 16.1605 6.90828L15.8574 6.7838L16.2393 5.83341L16.5424 5.95789C16.6194 5.86065 16.7056 5.77278 16.7991 5.69506L16.6717 5.39021L17.6066 4.99115L17.7339 5.29601C17.8542 5.28249 17.9766 5.28134 18.0992 5.29335L18.2224 4.98688ZM18.5764 10.5105L19.0932 10.7493L19.0171 10.9178C19.0673 10.9621 19.1124 11.0111 19.1522 11.0637L19.325 10.9985L19.5234 11.5368L19.3543 11.6006C19.3595 11.6712 19.3574 11.7428 19.3475 11.8142L19.5141 11.8912L19.2779 12.4137L19.1112 12.3367C19.0658 12.3892 19.0155 12.4363 18.9614 12.4775L19.0254 12.6511L18.4929 12.8517L18.4289 12.6781C18.3613 12.6827 18.2928 12.6804 18.2244 12.6707L18.1483 12.8392L17.6314 12.6003L17.7076 12.4319C17.6538 12.3844 17.6059 12.3317 17.5641 12.2748L17.3934 12.3391L17.195 11.8008L17.3694 11.7351C17.3654 11.669 17.3679 11.6022 17.3772 11.5355L17.2105 11.4584L17.4468 10.936L17.6134 11.013C17.6588 10.9605 17.7091 10.9134 17.7632 10.8722L17.6992 10.6985L18.2318 10.498L18.2958 10.6716C18.3634 10.667 18.4319 10.6693 18.5002 10.679L18.5764 10.5105ZM13.9707 17.3414C15.245 15.9688 16.1775 13.7218 16.1775 11.9198C16.1775 8.94481 13.4505 6.86974 10.0865 6.86974C8.21804 6.86974 5.78705 8.11186 5.42876 9.56313C5.22118 10.4039 5.31425 11.0095 5.39445 11.5313C5.43982 11.8265 5.37229 12.0948 5.30461 12.3638C5.28544 12.44 5.26624 12.5163 5.24961 12.5932C5.17508 12.9378 4.72607 13.4891 4.35389 13.9399C3.83149 14.5725 3.93543 15.09 4.35389 15.2866C4.61628 15.4099 4.95056 15.3585 5.24698 15.313C5.3096 15.3033 5.37055 15.294 5.42876 15.2866C5.63553 15.2603 6.01883 15.4149 6.14534 15.6232C6.23415 15.7695 6.20131 15.9423 6.1718 16.0976C6.16347 16.1414 6.15541 16.1838 6.15042 16.2239C6.14836 16.2403 6.14662 16.2569 6.14488 16.2734C6.14153 16.3052 6.13817 16.337 6.1326 16.3684L6.06179 16.7677L6.39705 16.8887C6.47791 16.9178 6.46634 17.0371 6.38162 17.0476L6.00383 17.0944L5.82529 18.101C5.80023 18.2423 5.81026 18.3893 5.86598 18.5213C6.15165 19.198 6.45386 19.2335 6.95126 19.292C7.03485 19.3018 7.12474 19.3124 7.22021 19.3267C7.65053 19.391 8.22567 19.3504 8.81981 19.2559C9.07546 19.2152 9.32379 19.3737 9.38608 19.6276C9.43975 19.8464 9.63402 20 9.857 20H13.0582C13.5504 20 13.9294 19.5609 13.8625 19.068L13.7271 18.0685C13.691 17.8021 13.7887 17.5374 13.9707 17.3414Z" fill="#2C2B2B"/>
</svg>
