<svg width="24" height="24" viewBox="0 0 24 24" fill="none" xmlns="http://www.w3.org/2000/svg">
<rect width="24" height="24" fill="white"/>
<mask id="path-1-inside-1_9_2" fill="white">
<path fill-rule="evenodd" clip-rule="evenodd" d="M13.3274 2.20391L14.1138 2L14.1789 2.25633C14.274 2.26 14.3676 2.27338 14.4585 2.29571L14.5927 2.06643L15.2914 2.48433L15.1601 2.70869C15.2287 2.78239 15.2899 2.86388 15.3424 2.95225L15.5959 2.88649L15.7977 3.68139L15.5441 3.74715C15.5403 3.84673 15.5263 3.94467 15.5027 4.03961L15.7281 4.17442L15.3147 4.88069L15.0893 4.74587C15.0183 4.81242 14.9402 4.87202 14.8556 4.92328L14.9207 5.17962L14.1343 5.38353L14.0693 5.12719C13.9674 5.12326 13.8673 5.10821 13.7703 5.08294L13.6378 5.3094L12.9391 4.8915L13.0745 4.66012C13.0114 4.59033 12.9547 4.51381 12.9058 4.43128L12.6522 4.49704L12.4505 3.70213L12.704 3.63638C12.7078 3.5368 12.7219 3.43885 12.7454 3.34392L12.52 3.2091L12.9334 2.50284L13.1588 2.63765C13.2298 2.5711 13.308 2.51151 13.3925 2.46024L13.3274 2.20391ZM14.7138 3.53883C14.7974 3.86809 14.6011 4.20348 14.2754 4.28794C13.9496 4.3724 13.6178 4.17396 13.5343 3.8447C13.4507 3.51544 13.647 3.18005 13.9728 3.09558C14.2985 3.01112 14.6303 3.20957 14.7138 3.53883Z"/>
<path fill-rule="evenodd" clip-rule="evenodd" d="M19.778 3.2336L20.9532 3.71615L20.7993 4.09924C20.9154 4.19322 21.0207 4.29797 21.1144 4.41142L21.4937 4.24948L21.9872 5.43073L21.616 5.58919C21.6343 5.74617 21.6364 5.90608 21.621 6.06635L22 6.22195L21.5226 7.40994L21.1437 7.25433C21.0474 7.37588 20.9397 7.48572 20.8229 7.58286L20.9821 7.96393L19.8135 8.46275L19.6543 8.08169C19.504 8.09859 19.351 8.10002 19.1977 8.08501L19.0437 8.4681L17.8685 7.98555L18.0224 7.60246C17.8981 7.50183 17.7861 7.38884 17.6876 7.26606L17.3129 7.42601L16.8195 6.24476L17.2023 6.08134C17.1872 5.93439 17.1863 5.78503 17.2007 5.63535L16.8217 5.47974L17.2991 4.29176L17.678 4.44736C17.7743 4.32581 17.882 4.21598 17.9988 4.11883L17.8396 3.73776L19.0082 3.23894L19.1674 3.62001C19.3177 3.60311 19.4707 3.60168 19.624 3.61669L19.778 3.2336ZM20.2923 6.21276C20.0945 6.70484 19.5396 6.94172 19.0528 6.74184C18.566 6.54196 18.3317 5.98102 18.5294 5.48894C18.7272 4.99686 19.2821 4.75998 19.7689 4.95986C20.2557 5.15974 20.49 5.72068 20.2923 6.21276Z"/>
<path fill-rule="evenodd" clip-rule="evenodd" d="M20.8666 10.4367L20.2205 10.1382L20.1253 10.3487C20.0398 10.3366 19.9542 10.3337 19.8697 10.3395L19.7897 10.1225L19.124 10.3732L19.2041 10.5902C19.1364 10.6417 19.0735 10.7006 19.0168 10.7663L18.8084 10.67L18.5131 11.3231L18.7215 11.4193C18.7099 11.5027 18.7068 11.5863 18.7118 11.6689L18.4937 11.751L18.7417 12.4239L18.9552 12.3435C19.0074 12.4146 19.0673 12.4805 19.1345 12.5398L19.0393 12.7504L19.6853 13.0489L19.7805 12.8384C19.866 12.8505 19.9516 12.8534 20.0361 12.8476L20.1161 13.0646L20.7818 12.8139L20.7018 12.5969C20.7694 12.5454 20.8323 12.4865 20.889 12.4209L21.0974 12.5171L21.3927 11.864L21.1843 11.7678C21.1967 11.6785 21.1994 11.589 21.1929 11.5007L21.4043 11.4211L21.1563 10.7482L20.9402 10.8296C20.8905 10.7638 20.8341 10.7027 20.7713 10.6473L20.8666 10.4367ZM19.7314 12.0834C19.999 12.207 20.3151 12.0879 20.4375 11.8174C20.5598 11.5469 20.442 11.2274 20.1744 11.1037C19.9068 10.9801 19.5907 11.0992 19.4684 11.3697C19.346 11.6402 19.4638 11.9597 19.7314 12.0834Z"/>
<path d="M13.2125 11.0282C13.0459 11.3966 12.6208 11.5612 12.2628 11.3958C11.9049 11.2304 11.7498 10.7977 11.9164 10.4294C12.0829 10.061 12.5081 9.89645 12.866 10.0618C13.224 10.2272 13.3791 10.6599 13.2125 11.0282Z"/>
<path fill-rule="evenodd" clip-rule="evenodd" d="M17.2218 11.8998C17.2218 14.1522 16.0562 16.961 14.4634 18.6767C14.2359 18.9218 14.1137 19.2527 14.1588 19.5856L14.3282 20.8349C14.4117 21.4511 13.938 22 13.3228 22H9.32124C9.04252 22 8.79968 21.808 8.7326 21.5345C8.65473 21.2171 8.34432 21.019 8.02476 21.0699C7.28208 21.188 6.56316 21.2388 6.02526 21.1583C5.90555 21.1404 5.79385 21.1273 5.68907 21.115C5.06732 21.0419 4.68956 20.9975 4.33248 20.1516C4.26283 19.9866 4.25029 19.8029 4.28161 19.6263L4.50478 18.368L4.97702 18.3095C5.08292 18.2964 5.09739 18.1473 4.99631 18.1108L4.57723 17.9596L4.66574 17.4605C4.67272 17.4212 4.67691 17.3815 4.6811 17.3417C4.68328 17.3211 4.68545 17.3004 4.68802 17.2798C4.69426 17.2298 4.70434 17.1768 4.71475 17.122C4.75164 16.9279 4.79269 16.7119 4.68167 16.5291C4.52353 16.2686 4.04441 16.0754 3.78595 16.1082C3.71318 16.1175 3.63701 16.1292 3.55873 16.1412C3.18819 16.1981 2.77035 16.2623 2.44236 16.1082C1.91929 15.8625 1.78937 15.2157 2.44236 14.4249C2.90758 13.8614 3.46885 13.1723 3.56201 12.7415C3.58281 12.6453 3.60679 12.55 3.63076 12.4548C3.71536 12.1186 3.79978 11.7831 3.74306 11.4141C3.64282 10.7619 3.52647 10.0049 3.78595 8.95391C4.23381 7.13982 7.27255 5.58718 9.60816 5.58718C13.8131 5.58718 17.2218 8.18101 17.2218 11.8998ZM12.9366 8.75057L13.8007 9.14983L13.6711 9.4366C13.7547 9.51123 13.8299 9.59374 13.896 9.68253L14.1867 9.57004L14.5133 10.4812L14.2289 10.5913C14.2369 10.711 14.2325 10.8326 14.2151 10.9539L14.4937 11.0827L14.0916 11.972L13.8129 11.8432C13.7362 11.9329 13.6513 12.0133 13.5601 12.0839L13.6655 12.3778L12.7701 12.7244L12.6647 12.4304C12.5513 12.4391 12.4364 12.4359 12.3219 12.4203L12.1922 12.707L11.3281 12.3078L11.4578 12.021C11.3682 11.9411 11.2884 11.8521 11.219 11.7561L10.9319 11.8672L10.6052 10.9561L10.8986 10.8426C10.8926 10.7305 10.8975 10.617 10.9138 10.5037L10.6352 10.3749L11.0373 9.48563L11.3159 9.61438C11.3927 9.52471 11.4776 9.44425 11.5688 9.37369L11.4634 9.07976L12.3588 8.73325L12.4642 9.02718C12.5776 9.01852 12.6925 9.02168 12.807 9.03734L12.9366 8.75057Z"/>
</mask>
<path fill-rule="evenodd" clip-rule="evenodd" d="M13.3274 2.20391L14.1138 2L14.1789 2.25633C14.274 2.26 14.3676 2.27338 14.4585 2.29571L14.5927 2.06643L15.2914 2.48433L15.1601 2.70869C15.2287 2.78239 15.2899 2.86388 15.3424 2.95225L15.5959 2.88649L15.7977 3.68139L15.5441 3.74715C15.5403 3.84673 15.5263 3.94467 15.5027 4.03961L15.7281 4.17442L15.3147 4.88069L15.0893 4.74587C15.0183 4.81242 14.9402 4.87202 14.8556 4.92328L14.9207 5.17962L14.1343 5.38353L14.0693 5.12719C13.9674 5.12326 13.8673 5.10821 13.7703 5.08294L13.6378 5.3094L12.9391 4.8915L13.0745 4.66012C13.0114 4.59033 12.9547 4.51381 12.9058 4.43128L12.6522 4.49704L12.4505 3.70213L12.704 3.63638C12.7078 3.5368 12.7219 3.43885 12.7454 3.34392L12.52 3.2091L12.9334 2.50284L13.1588 2.63765C13.2298 2.5711 13.308 2.51151 13.3925 2.46024L13.3274 2.20391ZM14.7138 3.53883C14.7974 3.86809 14.6011 4.20348 14.2754 4.28794C13.9496 4.3724 13.6178 4.17396 13.5343 3.8447C13.4507 3.51544 13.647 3.18005 13.9728 3.09558C14.2985 3.01112 14.6303 3.20957 14.7138 3.53883Z" stroke="black" stroke-width="10" mask="url(#path-1-inside-1_9_2)"/>
<path fill-rule="evenodd" clip-rule="evenodd" d="M19.778 3.2336L20.9532 3.71615L20.7993 4.09924C20.9154 4.19322 21.0207 4.29797 21.1144 4.41142L21.4937 4.24948L21.9872 5.43073L21.616 5.58919C21.6343 5.74617 21.6364 5.90608 21.621 6.06635L22 6.22195L21.5226 7.40994L21.1437 7.25433C21.0474 7.37588 20.9397 7.48572 20.8229 7.58286L20.9821 7.96393L19.8135 8.46275L19.6543 8.08169C19.504 8.09859 19.351 8.10002 19.1977 8.08501L19.0437 8.4681L17.8685 7.98555L18.0224 7.60246C17.8981 7.50183 17.7861 7.38884 17.6876 7.26606L17.3129 7.42601L16.8195 6.24476L17.2023 6.08134C17.1872 5.93439 17.1863 5.78503 17.2007 5.63535L16.8217 5.47974L17.2991 4.29176L17.678 4.44736C17.7743 4.32581 17.882 4.21598 17.9988 4.11883L17.8396 3.73776L19.0082 3.23894L19.1674 3.62001C19.3177 3.60311 19.4707 3.60168 19.624 3.61669L19.778 3.2336ZM20.2923 6.21276C20.0945 6.70484 19.5396 6.94172 19.0528 6.74184C18.566 6.54196 18.3317 5.98102 18.5294 5.48894C18.7272 4.99686 19.2821 4.75998 19.7689 4.95986C20.2557 5.15974 20.49 5.72068 20.2923 6.21276Z" stroke="black" stroke-width="10" mask="url(#path-1-inside-1_9_2)"/>
<path fill-rule="evenodd" clip-rule="evenodd" d="M20.8666 10.4367L20.2205 10.1382L20.1253 10.3487C20.0398 10.3366 19.9542 10.3337 19.8697 10.3395L19.7897 10.1225L19.124 10.3732L19.2041 10.5902C19.1364 10.6417 19.0735 10.7006 19.0168 10.7663L18.8084 10.67L18.5131 11.3231L18.7215 11.4193C18.7099 11.5027 18.7068 11.5863 18.7118 11.6689L18.4937 11.751L18.7417 12.4239L18.9552 12.3435C19.0074 12.4146 19.0673 12.4805 19.1345 12.5398L19.0393 12.7504L19.6853 13.0489L19.7805 12.8384C19.866 12.8505 19.9516 12.8534 20.0361 12.8476L20.1161 13.0646L20.7818 12.8139L20.7018 12.5969C20.7694 12.5454 20.8323 12.4865 20.889 12.4209L21.0974 12.5171L21.3927 11.864L21.1843 11.7678C21.1967 11.6785 21.1994 11.589 21.1929 11.5007L21.4043 11.4211L21.1563 10.7482L20.9402 10.8296C20.8905 10.7638 20.8341 10.7027 20.7713 10.6473L20.8666 10.4367ZM19.7314 12.0834C19.999 12.207 20.3151 12.0879 20.4375 11.8174C20.5598 11.5469 20.442 11.2274 20.1744 11.1037C19.9068 10.9801 19.5907 11.0992 19.4684 11.3697C19.346 11.6402 19.4638 11.9597 19.7314 12.0834Z" stroke="black" stroke-width="10" mask="url(#path-1-inside-1_9_2)"/>
<path d="M13.2125 11.0282C13.0459 11.3966 12.6208 11.5612 12.2628 11.3958C11.9049 11.2304 11.7498 10.7977 11.9164 10.4294C12.0829 10.061 12.5081 9.89645 12.866 10.0618C13.224 10.2272 13.3791 10.6599 13.2125 11.0282Z" stroke="black" stroke-width="10" mask="url(#path-1-inside-1_9_2)"/>
<path fill-rule="evenodd" clip-rule="evenodd" d="M17.2218 11.8998C17.2218 14.1522 16.0562 16.961 14.4634 18.6767C14.2359 18.9218 14.1137 19.2527 14.1588 19.5856L14.3282 20.8349C14.4117 21.4511 13.938 22 13.3228 22H9.32124C9.04252 22 8.79968 21.808 8.7326 21.5345C8.65473 21.2171 8.34432 21.019 8.02476 21.0699C7.28208 21.188 6.56316 21.2388 6.02526 21.1583C5.90555 21.1404 5.79385 21.1273 5.68907 21.115C5.06732 21.0419 4.68956 20.9975 4.33248 20.1516C4.26283 19.9866 4.25029 19.8029 4.28161 19.6263L4.50478 18.368L4.97702 18.3095C5.08292 18.2964 5.09739 18.1473 4.99631 18.1108L4.57723 17.9596L4.66574 17.4605C4.67272 17.4212 4.67691 17.3815 4.6811 17.3417C4.68328 17.3211 4.68545 17.3004 4.68802 17.2798C4.69426 17.2298 4.70434 17.1768 4.71475 17.122C4.75164 16.9279 4.79269 16.7119 4.68167 16.5291C4.52353 16.2686 4.04441 16.0754 3.78595 16.1082C3.71318 16.1175 3.63701 16.1292 3.55873 16.1412C3.18819 16.1981 2.77035 16.2623 2.44236 16.1082C1.91929 15.8625 1.78937 15.2157 2.44236 14.4249C2.90758 13.8614 3.46885 13.1723 3.56201 12.7415C3.58281 12.6453 3.60679 12.55 3.63076 12.4548C3.71536 12.1186 3.79978 11.7831 3.74306 11.4141C3.64282 10.7619 3.52647 10.0049 3.78595 8.95391C4.23381 7.13982 7.27255 5.58718 9.60816 5.58718C13.8131 5.58718 17.2218 8.18101 17.2218 11.8998ZM12.9366 8.75057L13.8007 9.14983L13.6711 9.4366C13.7547 9.51123 13.8299 9.59374 13.896 9.68253L14.1867 9.57004L14.5133 10.4812L14.2289 10.5913C14.2369 10.711 14.2325 10.8326 14.2151 10.9539L14.4937 11.0827L14.0916 11.972L13.8129 11.8432C13.7362 11.9329 13.6513 12.0133 13.5601 12.0839L13.6655 12.3778L12.7701 12.7244L12.6647 12.4304C12.5513 12.4391 12.4364 12.4359 12.3219 12.4203L12.1922 12.707L11.3281 12.3078L11.4578 12.021C11.3682 11.9411 11.2884 11.8521 11.219 11.7561L10.9319 11.8672L10.6052 10.9561L10.8986 10.8426C10.8926 10.7305 10.8975 10.617 10.9138 10.5037L10.6352 10.3749L11.0373 9.48563L11.3159 9.61438C11.3927 9.52471 11.4776 9.44425 11.5688 9.37369L11.4634 9.07976L12.3588 8.73325L12.4642 9.02718C12.5776 9.01852 12.6925 9.02168 12.807 9.03734L12.9366 8.75057Z" stroke="black" stroke-width="10" mask="url(#path-1-inside-1_9_2)"/>
</svg>
